<?xml version="1.0" standalone="no"?>
<!DOCTYPE svg PUBLIC "-//W3C//DTD SVG 20010904//EN" "http://www.w3.org/TR/2001/REC-SVG-20010904/DTD/svg10.dtd">
<!-- Created using Karbon, part of Calligra: http://www.calligra.org/karbon -->
<svg xmlns="http://www.w3.org/2000/svg" xmlns:xlink="http://www.w3.org/1999/xlink" width="460pt" height="345pt">
<defs/>
<g id="figure_1">
  <g id="patch_1" transform="translate(-0.78125, -0.78125)" fill="none">
   <path id="shape0" transform="matrix(1.25 0 0 1.25 9.4882 27.4143)" fill="#ffffff" d="M0 320.825L414.246 320.825L414.246 0L0 0Z"/>
  </g>
  <g id="axes_1" transform="translate(22.2285, 32.5931)" fill="none">
   <g id="patch_2" transform="translate(48.9902, 18.4656)" fill="none">
    <path id="shape1" transform="matrix(1.25 0 0 1.25 0.78125 0.78125)" fill="#ffffff" d="M0 266.112L357.12 266.112L357.12 0L0 0Z"/>
   </g>
   <g id="matplotlib.axis_1" transform="translate(53.741, 350.887)" fill="none">
    <g id="xtick_1" transform="" fill="none">
     <g id="line2d_1" transform="translate(2.23047, -7.10543e-14)" fill="none">
      <g id="group0" transform="" fill="none">
       <path id="m8719f86d17" transform="matrix(1.25 0 0 1.25 1 1)" fill="#000000" stroke="#000000" stroke-width="0.80000000000" stroke-linecap="butt" stroke-linejoin="round" d="M0 0L0 3.5"/>
      </g>
     </g>
     <g id="text_1" transform="translate(-8.88178e-15, 9.89258)" fill="none">
      <g id="group1" transform="" fill="none">
       <path id="DejaVuSans-30" transform="matrix(0.125 0 0 -0.125 0.078125 9.5332)" fill="#000000" d="M25.1875 67.8281C20.1146 67.8281 16.2969 65.3281 13.7344 60.3281C11.1823 55.3385 9.90625 47.8281 9.90625 37.7969C9.90625 27.8073 11.1823 20.3125 13.7344 15.3125C16.2969 10.3125 20.1146 7.8125 25.1875 7.8125C30.3021 7.8125 34.1354 10.3125 36.6875 15.3125C39.25 20.3125 40.5313 27.8073 40.5313 37.7969C40.5313 47.8281 39.25 55.3385 36.6875 60.3281C34.1354 65.3281 30.3021 67.8281 25.1875 67.8281ZM25.1875 75.6406C33.3646 75.6406 39.6094 72.4063 43.9219 65.9375C48.2344 59.4792 50.3906 50.099 50.3906 37.7969C50.3906 25.526 48.2344 16.1563 43.9219 9.6875C39.6094 3.22917 33.3646 0 25.1875 0C17.0208 0 10.7813 3.22917 6.46875 9.6875C2.15625 16.1563 0 25.526 0 37.7969C0 50.099 2.15625 59.4792 6.46875 65.9375C10.7813 72.4063 17.0208 75.6406 25.1875 75.6406Z"/>
      </g>
     </g>
    </g>
    <g id="xtick_2" transform="translate(62.0268, 7.10543e-14)" fill="none">
     <g id="line2d_2" transform="translate(5.6582, -7.10543e-14)" fill="none">
      <g id="group2" transform="" fill="none">
       <path id="m8719f86d171" transform="matrix(1.25 0 0 1.25 1 1)" fill="#000000" stroke="#000000" stroke-width="0.80000000000" stroke-linecap="butt" stroke-linejoin="round" d="M0 0L0 3.5"/>
      </g>
     </g>
     <g id="text_2" transform="translate(0, 9.89258)" fill="none">
      <g id="group3" transform="" fill="none">
       <path id="DejaVuSans-31" transform="matrix(0.125 0 0 -0.125 0.078125 9.35547)" fill="#000000" d="M1.42188 8.29688L17.5313 8.29688L17.5313 63.9219L0 60.4063L0 69.3906L17.4375 72.9063L27.2969 72.9063L27.2969 8.29688L43.4063 8.29688L43.4063 0L1.42188 0Z"/>
       <path id="DejaVuSans-301" transform="matrix(0.125 0 0 -0.125 7.48218 9.5332)" fill="#000000" d="M25.1875 67.8281C20.1146 67.8281 16.2969 65.3281 13.7344 60.3281C11.1823 55.3385 9.90625 47.8281 9.90625 37.7969C9.90625 27.8073 11.1823 20.3125 13.7344 15.3125C16.2969 10.3125 20.1146 7.8125 25.1875 7.8125C30.3021 7.8125 34.1354 10.3125 36.6875 15.3125C39.25 20.3125 40.5313 27.8073 40.5313 37.7969C40.5313 47.8281 39.25 55.3385 36.6875 60.3281C34.1354 65.3281 30.3021 67.8281 25.1875 67.8281ZM25.1875 75.6406C33.3646 75.6406 39.6094 72.4063 43.9219 65.9375C48.2344 59.4792 50.3906 50.099 50.3906 37.7969C50.3906 25.526 48.2344 16.1563 43.9219 9.6875C39.6094 3.22917 33.3646 0 25.1875 0C17.0208 0 10.7813 3.22917 6.46875 9.6875C2.15625 16.1563 0 25.526 0 37.7969C0 50.099 2.15625 59.4792 6.46875 65.9375C10.7813 72.4063 17.0208 75.6406 25.1875 75.6406Z"/>
      </g>
     </g>
    </g>
    <g id="xtick_3" transform="translate(127.024, 7.10543e-14)" fill="none">
     <g id="line2d_3" transform="translate(6.11523, -7.10543e-14)" fill="none">
      <g id="group4" transform="" fill="none">
       <path id="m8719f86d172" transform="matrix(1.25 0 0 1.25 1 1)" fill="#000000" stroke="#000000" stroke-width="0.80000000000" stroke-linecap="butt" stroke-linejoin="round" d="M0 0L0 3.5"/>
      </g>
     </g>
     <g id="text_3" transform="translate(0, 9.89258)" fill="none">
      <g id="group5" transform="" fill="none">
       <path id="DejaVuSans-32" transform="matrix(0.125 0 0 -0.125 0.078125 9.35547)" fill="#000000" d="M11.8594 8.29688L46.2813 8.29688L46.2813 0L0 0L0 8.29688C3.73958 12.1719 8.83854 17.3698 15.2969 23.8906C21.7656 30.4219 25.8281 34.6354 27.4844 36.5313C30.6406 40.0729 32.8438 43.0729 34.0938 45.5313C35.3542 47.9896 35.9844 50.4063 35.9844 52.7813C35.9844 56.6563 34.625 59.8125 31.9063 62.25C29.1875 64.6979 25.6458 65.9219 21.2813 65.9219C18.1875 65.9219 14.9219 65.3854 11.4844 64.3125C8.05729 63.2396 4.39063 61.6094 0.484375 59.4219L0.484375 69.3906C4.45312 70.9844 8.16146 72.1875 11.6094 73C15.0677 73.8125 18.2292 74.2188 21.0938 74.2188C28.6458 74.2188 34.6667 72.3281 39.1562 68.5469C43.6458 64.776 45.8906 59.7344 45.8906 53.4219C45.8906 50.4219 45.3281 47.5781 44.2031 44.8906C43.0885 42.2135 41.0469 39.0521 38.0781 35.4063C37.2656 34.4583 34.6771 31.7292 30.3125 27.2188C25.9583 22.7083 19.8073 16.401 11.8594 8.29688Z"/>
       <path id="DejaVuSans-302" transform="matrix(0.125 0 0 -0.125 7.93921 9.5332)" fill="#000000" d="M25.1875 67.8281C20.1146 67.8281 16.2969 65.3281 13.7344 60.3281C11.1823 55.3385 9.90625 47.8281 9.90625 37.7969C9.90625 27.8073 11.1823 20.3125 13.7344 15.3125C16.2969 10.3125 20.1146 7.8125 25.1875 7.8125C30.3021 7.8125 34.1354 10.3125 36.6875 15.3125C39.25 20.3125 40.5313 27.8073 40.5313 37.7969C40.5313 47.8281 39.25 55.3385 36.6875 60.3281C34.1354 65.3281 30.3021 67.8281 25.1875 67.8281ZM25.1875 75.6406C33.3646 75.6406 39.6094 72.4063 43.9219 65.9375C48.2344 59.4792 50.3906 50.099 50.3906 37.7969C50.3906 25.526 48.2344 16.1563 43.9219 9.6875C39.6094 3.22917 33.3646 0 25.1875 0C17.0208 0 10.7813 3.22917 6.46875 9.6875C2.15625 16.1563 0 25.526 0 37.7969C0 50.099 2.15625 59.4792 6.46875 65.9375C10.7813 72.4063 17.0208 75.6406 25.1875 75.6406Z"/>
      </g>
     </g>
    </g>
    <g id="xtick_4" transform="translate(192.516, 7.10543e-14)" fill="none">
     <g id="line2d_4" transform="translate(6.07812, -7.10543e-14)" fill="none">
      <g id="group6" transform="" fill="none">
       <path id="m8719f86d173" transform="matrix(1.25 0 0 1.25 1 1)" fill="#000000" stroke="#000000" stroke-width="0.80000000000" stroke-linecap="butt" stroke-linejoin="round" d="M0 0L0 3.5"/>
      </g>
     </g>
     <g id="text_4" transform="translate(0, 9.89258)" fill="none">
      <g id="group7" transform="" fill="none">
       <path id="DejaVuSans-33" transform="matrix(0.125 0 0 -0.125 0.078125 9.5332)" fill="#000000" d="M32.9531 40.7344C37.6719 39.724 41.3542 37.6198 44 34.4219C46.6563 31.2344 47.9844 27.2969 47.9844 22.6094C47.9844 15.4219 45.5104 9.85417 40.5625 5.90625C35.6146 1.96875 28.5833 0 19.4688 0C16.4167 0 13.2708 0.302083 10.0313 0.90625C6.79167 1.51042 3.44792 2.41667 0 3.625L0 13.1406C2.72917 11.5469 5.71875 10.3438 8.96875 9.53125C12.2292 8.71875 15.6354 8.3125 19.1875 8.3125C25.3646 8.3125 30.0729 9.53125 33.3125 11.9688C36.5521 14.4063 38.1719 17.9531 38.1719 22.6094C38.1719 26.9115 36.6667 30.2708 33.6563 32.6875C30.6458 35.1146 26.4583 36.3281 21.0938 36.3281L12.5938 36.3281L12.5938 44.4375L21.4844 44.4375C26.3281 44.4375 30.0365 45.4063 32.6094 47.3438C35.1823 49.2813 36.4688 52.0729 36.4688 55.7188C36.4688 59.4583 35.1406 62.3281 32.4844 64.3281C29.8385 66.3385 26.0417 67.3438 21.0938 67.3438C18.3854 67.3438 15.4844 67.0469 12.3906 66.4531C9.29688 65.8698 5.89583 64.9635 2.1875 63.7344L2.1875 72.5156C5.9375 73.5573 9.44792 74.3385 12.7188 74.8594C15.9896 75.3802 19.0729 75.6406 21.9688 75.6406C29.4583 75.6406 35.3802 73.9375 39.7344 70.5313C44.099 67.1354 46.2813 62.5417 46.2813 56.75C46.2813 52.7083 45.125 49.2969 42.8125 46.5156C40.5 43.7344 37.2135 41.8073 32.9531 40.7344Z"/>
       <path id="DejaVuSans-303" transform="matrix(0.125 0 0 -0.125 7.9021 9.5332)" fill="#000000" d="M25.1875 67.8281C20.1146 67.8281 16.2969 65.3281 13.7344 60.3281C11.1823 55.3385 9.90625 47.8281 9.90625 37.7969C9.90625 27.8073 11.1823 20.3125 13.7344 15.3125C16.2969 10.3125 20.1146 7.8125 25.1875 7.8125C30.3021 7.8125 34.1354 10.3125 36.6875 15.3125C39.25 20.3125 40.5313 27.8073 40.5313 37.7969C40.5313 47.8281 39.25 55.3385 36.6875 60.3281C34.1354 65.3281 30.3021 67.8281 25.1875 67.8281ZM25.1875 75.6406C33.3646 75.6406 39.6094 72.4063 43.9219 65.9375C48.2344 59.4792 50.3906 50.099 50.3906 37.7969C50.3906 25.526 48.2344 16.1563 43.9219 9.6875C39.6094 3.22917 33.3646 0 25.1875 0C17.0208 0 10.7813 3.22917 6.46875 9.6875C2.15625 16.1563 0 25.526 0 37.7969C0 50.099 2.15625 59.4792 6.46875 65.9375C10.7813 72.4063 17.0208 75.6406 25.1875 75.6406Z"/>
      </g>
     </g>
    </g>
    <g id="xtick_5" transform="translate(257.629, 7.10543e-14)" fill="none">
     <g id="line2d_5" transform="translate(6.41992, -7.10543e-14)" fill="none">
      <g id="group8" transform="" fill="none">
       <path id="m8719f86d174" transform="matrix(1.25 0 0 1.25 1 1)" fill="#000000" stroke="#000000" stroke-width="0.80000000000" stroke-linecap="butt" stroke-linejoin="round" d="M0 0L0 3.5"/>
      </g>
     </g>
     <g id="text_5" transform="translate(0, 9.89258)" fill="none">
      <g id="group9" transform="" fill="none">
       <path id="DejaVuSans-34" transform="matrix(0.125 0 0 -0.125 0.078125 9.35547)" fill="#000000" d="M32.9063 64.3125L8 25.3906L32.9063 25.3906ZM30.3125 72.9063L42.7188 72.9063L42.7188 25.3906L53.125 25.3906L53.125 17.1875L42.7188 17.1875L42.7188 0L32.9063 0L32.9063 17.1875L0 17.1875L0 26.7031Z"/>
       <path id="DejaVuSans-304" transform="matrix(0.125 0 0 -0.125 8.2439 9.5332)" fill="#000000" d="M25.1875 67.8281C20.1146 67.8281 16.2969 65.3281 13.7344 60.3281C11.1823 55.3385 9.90625 47.8281 9.90625 37.7969C9.90625 27.8073 11.1823 20.3125 13.7344 15.3125C16.2969 10.3125 20.1146 7.8125 25.1875 7.8125C30.3021 7.8125 34.1354 10.3125 36.6875 15.3125C39.25 20.3125 40.5313 27.8073 40.5313 37.7969C40.5313 47.8281 39.25 55.3385 36.6875 60.3281C34.1354 65.3281 30.3021 67.8281 25.1875 67.8281ZM25.1875 75.6406C33.3646 75.6406 39.6094 72.4063 43.9219 65.9375C48.2344 59.4792 50.3906 50.099 50.3906 37.7969C50.3906 25.526 48.2344 16.1563 43.9219 9.6875C39.6094 3.22917 33.3646 0 25.1875 0C17.0208 0 10.7813 3.22917 6.46875 9.6875C2.15625 16.1563 0 25.526 0 37.7969C0 50.099 2.15625 59.4792 6.46875 65.9375C10.7813 72.4063 17.0208 75.6406 25.1875 75.6406Z"/>
      </g>
     </g>
    </g>
    <g id="xtick_6" transform="translate(323.437, 7.10543e-14)" fill="none">
     <g id="line2d_6" transform="translate(6.06641, -7.10543e-14)" fill="none">
      <g id="group10" transform="" fill="none">
       <path id="m8719f86d175" transform="matrix(1.25 0 0 1.25 1 1)" fill="#000000" stroke="#000000" stroke-width="0.80000000000" stroke-linecap="butt" stroke-linejoin="round" d="M0 0L0 3.5"/>
      </g>
     </g>
     <g id="text_6" transform="translate(7.10543e-14, 9.89258)" fill="none">
      <g id="group11" transform="" fill="none">
       <path id="DejaVuSans-35" transform="matrix(0.125 0 0 -0.125 0.078125 9.5332)" fill="#000000" d="M3.07813 74.3281L41.7969 74.3281L41.7969 66.0156L12.1094 66.0156L12.1094 48.1563C13.5365 48.6458 14.9635 49.0104 16.3906 49.25C17.8281 49.4896 19.2656 49.6094 20.7031 49.6094C28.8385 49.6094 35.2813 47.3802 40.0313 42.9219C44.7917 38.4635 47.1719 32.4271 47.1719 24.8125C47.1719 16.9688 44.7292 10.8698 39.8437 6.51562C34.9583 2.17188 28.0729 0 19.1875 0C16.125 0 13.0052 0.260417 9.82812 0.78125C6.66146 1.30208 3.38542 2.08333 0 3.125L0 13.0469C2.92708 11.4531 5.95312 10.2656 9.07813 9.48438C12.2031 8.70313 15.5052 8.3125 18.9844 8.3125C24.6198 8.3125 29.0781 9.79167 32.3594 12.75C35.651 15.7083 37.2969 19.7292 37.2969 24.8125C37.2969 29.8854 35.651 33.901 32.3594 36.8594C29.0781 39.8281 24.6198 41.3125 18.9844 41.3125C16.349 41.3125 13.7188 41.0208 11.0938 40.4375C8.47917 39.8542 5.80729 38.9427 3.07813 37.7031Z"/>
       <path id="DejaVuSans-305" transform="matrix(0.125 0 0 -0.125 7.89038 9.5332)" fill="#000000" d="M25.1875 67.8281C20.1146 67.8281 16.2969 65.3281 13.7344 60.3281C11.1823 55.3385 9.90625 47.8281 9.90625 37.7969C9.90625 27.8073 11.1823 20.3125 13.7344 15.3125C16.2969 10.3125 20.1146 7.8125 25.1875 7.8125C30.3021 7.8125 34.1354 10.3125 36.6875 15.3125C39.25 20.3125 40.5313 27.8073 40.5313 37.7969C40.5313 47.8281 39.25 55.3385 36.6875 60.3281C34.1354 65.3281 30.3021 67.8281 25.1875 67.8281ZM25.1875 75.6406C33.3646 75.6406 39.6094 72.4063 43.9219 65.9375C48.2344 59.4792 50.3906 50.099 50.3906 37.7969C50.3906 25.526 48.2344 16.1563 43.9219 9.6875C39.6094 3.22917 33.3646 0 25.1875 0C17.0208 0 10.7813 3.22917 6.46875 9.6875C2.15625 16.1563 0 25.526 0 37.7969C0 50.099 2.15625 59.4792 6.46875 65.9375C10.7813 72.4063 17.0208 75.6406 25.1875 75.6406Z"/>
      </g>
     </g>
    </g>
    <g id="xtick_7" transform="translate(388.8, 7.10543e-14)" fill="none">
     <g id="line2d_7" transform="translate(6.1582, -7.10543e-14)" fill="none">
      <g id="group12" transform="" fill="none">
       <path id="m8719f86d176" transform="matrix(1.25 0 0 1.25 1 1)" fill="#000000" stroke="#000000" stroke-width="0.80000000000" stroke-linecap="butt" stroke-linejoin="round" d="M0 0L0 3.5"/>
      </g>
     </g>
     <g id="text_7" transform="translate(0, 9.89258)" fill="none">
      <g id="group13" transform="" fill="none">
       <path id="DejaVuSans-36" transform="matrix(0.125 0 0 -0.125 0.078125 9.5332)" fill="#000000" d="M26.0313 41.7969C21.6042 41.7969 18.0938 40.2813 15.5 37.25C12.9167 34.2292 11.625 30.0833 11.625 24.8125C11.625 19.5729 12.9167 15.4271 15.5 12.375C18.0938 9.33333 21.6042 7.8125 26.0313 7.8125C30.4583 7.8125 33.9635 9.33333 36.5469 12.375C39.1302 15.4271 40.4219 19.5729 40.4219 24.8125C40.4219 30.0833 39.1302 34.2292 36.5469 37.25C33.9635 40.2813 30.4583 41.7969 26.0313 41.7969ZM45.6094 72.7188L45.6094 63.7344C43.1302 64.901 40.6302 65.7917 38.1094 66.4063C35.5885 67.0313 33.0885 67.3438 30.6094 67.3438C24.099 67.3438 19.125 65.1458 15.6875 60.75C12.2604 56.3542 10.3021 49.7135 9.8125 40.8281C11.7292 43.6615 14.1354 45.8333 17.0312 47.3438C19.9375 48.8542 23.1302 49.6094 26.6094 49.6094C33.9323 49.6094 39.7188 47.3854 43.9688 42.9375C48.2187 38.5 50.3438 32.4583 50.3438 24.8125C50.3438 17.3229 48.1302 11.3125 43.7031 6.78125C39.276 2.26042 33.3854 0 26.0313 0C17.5938 0 11.1458 3.22917 6.6875 9.6875C2.22917 16.1563 0 25.526 0 37.7969C0 49.3177 2.73438 58.5052 8.20312 65.3594C13.6719 72.2135 21.0104 75.6406 30.2187 75.6406C32.6979 75.6406 35.1979 75.3958 37.7188 74.9063C40.2396 74.4167 42.8698 73.6875 45.6094 72.7188Z"/>
       <path id="DejaVuSans-306" transform="matrix(0.125 0 0 -0.125 7.98218 9.5332)" fill="#000000" d="M25.1875 67.8281C20.1146 67.8281 16.2969 65.3281 13.7344 60.3281C11.1823 55.3385 9.90625 47.8281 9.90625 37.7969C9.90625 27.8073 11.1823 20.3125 13.7344 15.3125C16.2969 10.3125 20.1146 7.8125 25.1875 7.8125C30.3021 7.8125 34.1354 10.3125 36.6875 15.3125C39.25 20.3125 40.5313 27.8073 40.5313 37.7969C40.5313 47.8281 39.25 55.3385 36.6875 60.3281C34.1354 65.3281 30.3021 67.8281 25.1875 67.8281ZM25.1875 75.6406C33.3646 75.6406 39.6094 72.4063 43.9219 65.9375C48.2344 59.4792 50.3906 50.099 50.3906 37.7969C50.3906 25.526 48.2344 16.1563 43.9219 9.6875C39.6094 3.22917 33.3646 0 25.1875 0C17.0208 0 10.7813 3.22917 6.46875 9.6875C2.15625 16.1563 0 25.526 0 37.7969C0 50.099 2.15625 59.4792 6.46875 65.9375C10.7813 72.4063 17.0208 75.6406 25.1875 75.6406Z"/>
      </g>
     </g>
    </g>
    <g id="text_8" transform="translate(215.703, 27.1543)" fill="none">
     <g id="group14" transform="" fill="none">
      <path id="DejaVuSans-4e" transform="matrix(0.125 0 0 -0.125 0.078125 9.19141)" fill="#000000" d="M0 72.9063L13.2813 72.9063L45.6094 11.9219L45.6094 72.9063L55.1719 72.9063L55.1719 0L41.8906 0L9.57813 60.9844L9.57813 0L0 0Z"/>
     </g>
    </g>
   </g>
   <g id="matplotlib.axis_2" transform="translate(-8.88178e-15, 66.1424)" fill="none">
    <g id="ytick_1" transform="translate(33.8145, 266.018)" fill="none">
     <g id="line2d_8" transform="translate(10.582, 3.60645)" fill="none">
      <g id="group15" transform="" fill="none">
       <path id="mcdbbb559eb" transform="matrix(1.25 0 0 1.25 1 1)" fill="#000000" stroke="#000000" stroke-width="0.80000000000" stroke-linecap="butt" stroke-linejoin="round" d="M3.5 0L0 0"/>
      </g>
     </g>
     <g id="text_9" transform="" fill="none">
      <g id="group16" transform="" fill="none">
       <path id="DejaVuSans-307" transform="matrix(0.125 0 0 -0.125 0.078125 9.5332)" fill="#000000" d="M25.1875 67.8281C20.1146 67.8281 16.2969 65.3281 13.7344 60.3281C11.1823 55.3385 9.90625 47.8281 9.90625 37.7969C9.90625 27.8073 11.1823 20.3125 13.7344 15.3125C16.2969 10.3125 20.1146 7.8125 25.1875 7.8125C30.3021 7.8125 34.1354 10.3125 36.6875 15.3125C39.25 20.3125 40.5313 27.8073 40.5313 37.7969C40.5313 47.8281 39.25 55.3385 36.6875 60.3281C34.1354 65.3281 30.3021 67.8281 25.1875 67.8281ZM25.1875 75.6406C33.3646 75.6406 39.6094 72.4063 43.9219 65.9375C48.2344 59.4792 50.3906 50.099 50.3906 37.7969C50.3906 25.526 48.2344 16.1563 43.9219 9.6875C39.6094 3.22917 33.3646 0 25.1875 0C17.0208 0 10.7813 3.22917 6.46875 9.6875C2.15625 16.1563 0 25.526 0 37.7969C0 50.099 2.15625 59.4792 6.46875 65.9375C10.7813 72.4063 17.0208 75.6406 25.1875 75.6406Z"/>
      </g>
     </g>
    </g>
    <g id="ytick_2" transform="translate(18.457, 199.514)" fill="none">
     <g id="line2d_9" transform="translate(25.9395, 3.60644)" fill="none">
      <g id="group17" transform="" fill="none">
       <path id="mcdbbb559eb1" transform="matrix(1.25 0 0 1.25 1 1)" fill="#000000" stroke="#000000" stroke-width="0.80000000000" stroke-linecap="butt" stroke-linejoin="round" d="M3.5 0L0 0"/>
      </g>
     </g>
     <g id="text_10" transform="" fill="none">
      <g id="group18" transform="" fill="none">
       <path id="DejaVuSans-311" transform="matrix(0.125 0 0 -0.125 0.078125 9.35547)" fill="#000000" d="M1.42188 8.29688L17.5313 8.29688L17.5313 63.9219L0 60.4063L0 69.3906L17.4375 72.9063L27.2969 72.9063L27.2969 8.29688L43.4063 8.29688L43.4063 0L1.42188 0Z"/>
       <path id="DejaVuSans-308" transform="matrix(0.125 0 0 -0.125 7.48218 9.5332)" fill="#000000" d="M25.1875 67.8281C20.1146 67.8281 16.2969 65.3281 13.7344 60.3281C11.1823 55.3385 9.90625 47.8281 9.90625 37.7969C9.90625 27.8073 11.1823 20.3125 13.7344 15.3125C16.2969 10.3125 20.1146 7.8125 25.1875 7.8125C30.3021 7.8125 34.1354 10.3125 36.6875 15.3125C39.25 20.3125 40.5313 27.8073 40.5313 37.7969C40.5313 47.8281 39.25 55.3385 36.6875 60.3281C34.1354 65.3281 30.3021 67.8281 25.1875 67.8281ZM25.1875 75.6406C33.3646 75.6406 39.6094 72.4063 43.9219 65.9375C48.2344 59.4792 50.3906 50.099 50.3906 37.7969C50.3906 25.526 48.2344 16.1563 43.9219 9.6875C39.6094 3.22917 33.3646 0 25.1875 0C17.0208 0 10.7813 3.22917 6.46875 9.6875C2.15625 16.1563 0 25.526 0 37.7969C0 50.099 2.15625 59.4792 6.46875 65.9375C10.7813 72.4063 17.0208 75.6406 25.1875 75.6406Z"/>
       <path id="DejaVuSans-309" transform="matrix(0.125 0 0 -0.125 15.4351 9.5332)" fill="#000000" d="M25.1875 67.8281C20.1146 67.8281 16.2969 65.3281 13.7344 60.3281C11.1823 55.3385 9.90625 47.8281 9.90625 37.7969C9.90625 27.8073 11.1823 20.3125 13.7344 15.3125C16.2969 10.3125 20.1146 7.8125 25.1875 7.8125C30.3021 7.8125 34.1354 10.3125 36.6875 15.3125C39.25 20.3125 40.5313 27.8073 40.5313 37.7969C40.5313 47.8281 39.25 55.3385 36.6875 60.3281C34.1354 65.3281 30.3021 67.8281 25.1875 67.8281ZM25.1875 75.6406C33.3646 75.6406 39.6094 72.4063 43.9219 65.9375C48.2344 59.4792 50.3906 50.099 50.3906 37.7969C50.3906 25.526 48.2344 16.1563 43.9219 9.6875C39.6094 3.22917 33.3646 0 25.1875 0C17.0208 0 10.7813 3.22917 6.46875 9.6875C2.15625 16.1563 0 25.526 0 37.7969C0 50.099 2.15625 59.4792 6.46875 65.9375C10.7813 72.4063 17.0208 75.6406 25.1875 75.6406Z"/>
      </g>
     </g>
    </g>
    <g id="ytick_3" transform="translate(18, 133.009)" fill="none">
     <g id="line2d_10" transform="translate(26.3965, 3.60644)" fill="none">
      <g id="group19" transform="" fill="none">
       <path id="mcdbbb559eb2" transform="matrix(1.25 0 0 1.25 1 1)" fill="#000000" stroke="#000000" stroke-width="0.80000000000" stroke-linecap="butt" stroke-linejoin="round" d="M3.5 0L0 0"/>
      </g>
     </g>
     <g id="text_11" transform="" fill="none">
      <g id="group20" transform="" fill="none">
       <path id="DejaVuSans-321" transform="matrix(0.125 0 0 -0.125 0.078125 9.35547)" fill="#000000" d="M11.8594 8.29688L46.2813 8.29688L46.2813 0L0 0L0 8.29688C3.73958 12.1719 8.83854 17.3698 15.2969 23.8906C21.7656 30.4219 25.8281 34.6354 27.4844 36.5313C30.6406 40.0729 32.8438 43.0729 34.0938 45.5313C35.3542 47.9896 35.9844 50.4063 35.9844 52.7813C35.9844 56.6563 34.625 59.8125 31.9063 62.25C29.1875 64.6979 25.6458 65.9219 21.2813 65.9219C18.1875 65.9219 14.9219 65.3854 11.4844 64.3125C8.05729 63.2396 4.39063 61.6094 0.484375 59.4219L0.484375 69.3906C4.45312 70.9844 8.16146 72.1875 11.6094 73C15.0677 73.8125 18.2292 74.2188 21.0938 74.2188C28.6458 74.2188 34.6667 72.3281 39.1562 68.5469C43.6458 64.776 45.8906 59.7344 45.8906 53.4219C45.8906 50.4219 45.3281 47.5781 44.2031 44.8906C43.0885 42.2135 41.0469 39.0521 38.0781 35.4063C37.2656 34.4583 34.6771 31.7292 30.3125 27.2188C25.9583 22.7083 19.8073 16.401 11.8594 8.29688Z"/>
       <path id="DejaVuSans-3010" transform="matrix(0.125 0 0 -0.125 7.93921 9.5332)" fill="#000000" d="M25.1875 67.8281C20.1146 67.8281 16.2969 65.3281 13.7344 60.3281C11.1823 55.3385 9.90625 47.8281 9.90625 37.7969C9.90625 27.8073 11.1823 20.3125 13.7344 15.3125C16.2969 10.3125 20.1146 7.8125 25.1875 7.8125C30.3021 7.8125 34.1354 10.3125 36.6875 15.3125C39.25 20.3125 40.5313 27.8073 40.5313 37.7969C40.5313 47.8281 39.25 55.3385 36.6875 60.3281C34.1354 65.3281 30.3021 67.8281 25.1875 67.8281ZM25.1875 75.6406C33.3646 75.6406 39.6094 72.4063 43.9219 65.9375C48.2344 59.4792 50.3906 50.099 50.3906 37.7969C50.3906 25.526 48.2344 16.1563 43.9219 9.6875C39.6094 3.22917 33.3646 0 25.1875 0C17.0208 0 10.7813 3.22917 6.46875 9.6875C2.15625 16.1563 0 25.526 0 37.7969C0 50.099 2.15625 59.4792 6.46875 65.9375C10.7813 72.4063 17.0208 75.6406 25.1875 75.6406Z"/>
       <path id="DejaVuSans-3011" transform="matrix(0.125 0 0 -0.125 15.8921 9.5332)" fill="#000000" d="M25.1875 67.8281C20.1146 67.8281 16.2969 65.3281 13.7344 60.3281C11.1823 55.3385 9.90625 47.8281 9.90625 37.7969C9.90625 27.8073 11.1823 20.3125 13.7344 15.3125C16.2969 10.3125 20.1146 7.8125 25.1875 7.8125C30.3021 7.8125 34.1354 10.3125 36.6875 15.3125C39.25 20.3125 40.5313 27.8073 40.5313 37.7969C40.5313 47.8281 39.25 55.3385 36.6875 60.3281C34.1354 65.3281 30.3021 67.8281 25.1875 67.8281ZM25.1875 75.6406C33.3646 75.6406 39.6094 72.4063 43.9219 65.9375C48.2344 59.4792 50.3906 50.099 50.3906 37.7969C50.3906 25.526 48.2344 16.1563 43.9219 9.6875C39.6094 3.22917 33.3646 0 25.1875 0C17.0208 0 10.7813 3.22917 6.46875 9.6875C2.15625 16.1563 0 25.526 0 37.7969C0 50.099 2.15625 59.4792 6.46875 65.9375C10.7813 72.4063 17.0208 75.6406 25.1875 75.6406Z"/>
      </g>
     </g>
    </g>
    <g id="ytick_4" transform="translate(18.0371, 66.5045)" fill="none">
     <g id="line2d_11" transform="translate(26.3594, 3.60644)" fill="none">
      <g id="group21" transform="" fill="none">
       <path id="mcdbbb559eb3" transform="matrix(1.25 0 0 1.25 1 1)" fill="#000000" stroke="#000000" stroke-width="0.80000000000" stroke-linecap="butt" stroke-linejoin="round" d="M3.5 0L0 0"/>
      </g>
     </g>
     <g id="text_12" transform="" fill="none">
      <g id="group22" transform="" fill="none">
       <path id="DejaVuSans-331" transform="matrix(0.125 0 0 -0.125 0.078125 9.5332)" fill="#000000" d="M32.9531 40.7344C37.6719 39.724 41.3542 37.6198 44 34.4219C46.6563 31.2344 47.9844 27.2969 47.9844 22.6094C47.9844 15.4219 45.5104 9.85417 40.5625 5.90625C35.6146 1.96875 28.5833 0 19.4688 0C16.4167 0 13.2708 0.302083 10.0313 0.90625C6.79167 1.51042 3.44792 2.41667 0 3.625L0 13.1406C2.72917 11.5469 5.71875 10.3438 8.96875 9.53125C12.2292 8.71875 15.6354 8.3125 19.1875 8.3125C25.3646 8.3125 30.0729 9.53125 33.3125 11.9688C36.5521 14.4063 38.1719 17.9531 38.1719 22.6094C38.1719 26.9115 36.6667 30.2708 33.6563 32.6875C30.6458 35.1146 26.4583 36.3281 21.0938 36.3281L12.5938 36.3281L12.5938 44.4375L21.4844 44.4375C26.3281 44.4375 30.0365 45.4063 32.6094 47.3438C35.1823 49.2813 36.4688 52.0729 36.4688 55.7188C36.4688 59.4583 35.1406 62.3281 32.4844 64.3281C29.8385 66.3385 26.0417 67.3438 21.0938 67.3438C18.3854 67.3438 15.4844 67.0469 12.3906 66.4531C9.29688 65.8698 5.89583 64.9635 2.1875 63.7344L2.1875 72.5156C5.9375 73.5573 9.44792 74.3385 12.7188 74.8594C15.9896 75.3802 19.0729 75.6406 21.9688 75.6406C29.4583 75.6406 35.3802 73.9375 39.7344 70.5313C44.099 67.1354 46.2813 62.5417 46.2813 56.75C46.2813 52.7083 45.125 49.2969 42.8125 46.5156C40.5 43.7344 37.2135 41.8073 32.9531 40.7344Z"/>
       <path id="DejaVuSans-3012" transform="matrix(0.125 0 0 -0.125 7.9021 9.5332)" fill="#000000" d="M25.1875 67.8281C20.1146 67.8281 16.2969 65.3281 13.7344 60.3281C11.1823 55.3385 9.90625 47.8281 9.90625 37.7969C9.90625 27.8073 11.1823 20.3125 13.7344 15.3125C16.2969 10.3125 20.1146 7.8125 25.1875 7.8125C30.3021 7.8125 34.1354 10.3125 36.6875 15.3125C39.25 20.3125 40.5313 27.8073 40.5313 37.7969C40.5313 47.8281 39.25 55.3385 36.6875 60.3281C34.1354 65.3281 30.3021 67.8281 25.1875 67.8281ZM25.1875 75.6406C33.3646 75.6406 39.6094 72.4063 43.9219 65.9375C48.2344 59.4792 50.3906 50.099 50.3906 37.7969C50.3906 25.526 48.2344 16.1563 43.9219 9.6875C39.6094 3.22917 33.3646 0 25.1875 0C17.0208 0 10.7813 3.22917 6.46875 9.6875C2.15625 16.1563 0 25.526 0 37.7969C0 50.099 2.15625 59.4792 6.46875 65.9375C10.7813 72.4063 17.0208 75.6406 25.1875 75.6406Z"/>
       <path id="DejaVuSans-3013" transform="matrix(0.125 0 0 -0.125 15.855 9.5332)" fill="#000000" d="M25.1875 67.8281C20.1146 67.8281 16.2969 65.3281 13.7344 60.3281C11.1823 55.3385 9.90625 47.8281 9.90625 37.7969C9.90625 27.8073 11.1823 20.3125 13.7344 15.3125C16.2969 10.3125 20.1146 7.8125 25.1875 7.8125C30.3021 7.8125 34.1354 10.3125 36.6875 15.3125C39.25 20.3125 40.5313 27.8073 40.5313 37.7969C40.5313 47.8281 39.25 55.3385 36.6875 60.3281C34.1354 65.3281 30.3021 67.8281 25.1875 67.8281ZM25.1875 75.6406C33.3646 75.6406 39.6094 72.4063 43.9219 65.9375C48.2344 59.4792 50.3906 50.099 50.3906 37.7969C50.3906 25.526 48.2344 16.1563 43.9219 9.6875C39.6094 3.22917 33.3646 0 25.1875 0C17.0208 0 10.7813 3.22917 6.46875 9.6875C2.15625 16.1563 0 25.526 0 37.7969C0 50.099 2.15625 59.4792 6.46875 65.9375C10.7813 72.4063 17.0208 75.6406 25.1875 75.6406Z"/>
      </g>
     </g>
    </g>
    <g id="ytick_5" transform="translate(17.6953, 0)" fill="none">
     <g id="line2d_12" transform="translate(26.7012, 3.60644)" fill="none">
      <g id="group23" transform="" fill="none">
       <path id="mcdbbb559eb4" transform="matrix(1.25 0 0 1.25 1 1)" fill="#000000" stroke="#000000" stroke-width="0.80000000000" stroke-linecap="butt" stroke-linejoin="round" d="M3.5 0L0 0"/>
      </g>
     </g>
     <g id="text_13" transform="" fill="none">
      <g id="group24" transform="" fill="none">
       <path id="DejaVuSans-341" transform="matrix(0.125 0 0 -0.125 0.078125 9.35547)" fill="#000000" d="M32.9063 64.3125L8 25.3906L32.9063 25.3906ZM30.3125 72.9063L42.7188 72.9063L42.7188 25.3906L53.125 25.3906L53.125 17.1875L42.7188 17.1875L42.7188 0L32.9063 0L32.9063 17.1875L0 17.1875L0 26.7031Z"/>
       <path id="DejaVuSans-3014" transform="matrix(0.125 0 0 -0.125 8.2439 9.5332)" fill="#000000" d="M25.1875 67.8281C20.1146 67.8281 16.2969 65.3281 13.7344 60.3281C11.1823 55.3385 9.90625 47.8281 9.90625 37.7969C9.90625 27.8073 11.1823 20.3125 13.7344 15.3125C16.2969 10.3125 20.1146 7.8125 25.1875 7.8125C30.3021 7.8125 34.1354 10.3125 36.6875 15.3125C39.25 20.3125 40.5313 27.8073 40.5313 37.7969C40.5313 47.8281 39.25 55.3385 36.6875 60.3281C34.1354 65.3281 30.3021 67.8281 25.1875 67.8281ZM25.1875 75.6406C33.3646 75.6406 39.6094 72.4063 43.9219 65.9375C48.2344 59.4792 50.3906 50.099 50.3906 37.7969C50.3906 25.526 48.2344 16.1563 43.9219 9.6875C39.6094 3.22917 33.3646 0 25.1875 0C17.0208 0 10.7813 3.22917 6.46875 9.6875C2.15625 16.1563 0 25.526 0 37.7969C0 50.099 2.15625 59.4792 6.46875 65.9375C10.7813 72.4063 17.0208 75.6406 25.1875 75.6406Z"/>
       <path id="DejaVuSans-3015" transform="matrix(0.125 0 0 -0.125 16.1968 9.5332)" fill="#000000" d="M25.1875 67.8281C20.1146 67.8281 16.2969 65.3281 13.7344 60.3281C11.1823 55.3385 9.90625 47.8281 9.90625 37.7969C9.90625 27.8073 11.1823 20.3125 13.7344 15.3125C16.2969 10.3125 20.1146 7.8125 25.1875 7.8125C30.3021 7.8125 34.1354 10.3125 36.6875 15.3125C39.25 20.3125 40.5313 27.8073 40.5313 37.7969C40.5313 47.8281 39.25 55.3385 36.6875 60.3281C34.1354 65.3281 30.3021 67.8281 25.1875 67.8281ZM25.1875 75.6406C33.3646 75.6406 39.6094 72.4063 43.9219 65.9375C48.2344 59.4792 50.3906 50.099 50.3906 37.7969C50.3906 25.526 48.2344 16.1563 43.9219 9.6875C39.6094 3.22917 33.3646 0 25.1875 0C17.0208 0 10.7813 3.22917 6.46875 9.6875C2.15625 16.1563 0 25.526 0 37.7969C0 50.099 2.15625 59.4792 6.46875 65.9375C10.7813 72.4063 17.0208 75.6406 25.1875 75.6406Z"/>
      </g>
     </g>
    </g>
    <g id="text_14" transform="translate(0, 88.7751)" fill="none">
     <g id="group25" transform="" fill="none">
      <path id="DejaVuSans-54" transform="matrix(0 -0.125 -0.125 0 9.5625 62.332)" fill="#000000" d="M0 72.9063L61.6719 72.9063L61.6719 64.5938L35.7969 64.5938L35.7969 0L25.8906 0L25.8906 64.5938L0 64.5938Z"/>
      <path id="DejaVuSans-65" transform="matrix(0 -0.125 -0.125 0 9.74023 54.0032)" fill="#000000" d="M50.6875 31.0156L50.6875 26.625L9.375 26.625C9.77083 20.4375 11.6354 15.724 14.9688 12.4844C18.3021 9.24479 22.9479 7.625 28.9062 7.625C32.3542 7.625 35.6979 8.04688 38.9375 8.89063C42.1771 9.73438 45.3958 11.0052 48.5938 12.7031L48.5938 4.20313C45.3646 2.83854 42.0573 1.79688 38.6719 1.07813C35.2865 0.359375 31.8542 0 28.375 0C19.6458 0 12.7344 2.53646 7.64063 7.60938C2.54687 12.6927 0 19.5677 0 28.2344C0 37.1823 2.41667 44.2813 7.25 49.5313C12.0833 54.7917 18.6042 57.4219 26.8125 57.4219C34.1667 57.4219 39.9844 55.0521 44.2656 50.3125C48.5469 45.5833 50.6875 39.151 50.6875 31.0156ZM41.7031 33.6563C41.6406 38.5625 40.2656 42.4792 37.5781 45.4063C34.8906 48.3438 31.3333 49.8125 26.9063 49.8125C21.8958 49.8125 17.8854 48.3958 14.875 45.5625C11.8646 42.7292 10.1302 38.7396 9.67187 33.5938Z"/>
      <path id="DejaVuSans-6d" transform="matrix(0 -0.125 -0.125 0 9.5625 45.8674)" fill="#000000" d="M42.9219 44.1875C45.1719 48.2292 47.8594 51.2083 50.9844 53.125C54.1094 55.0417 57.7865 56 62.0156 56C67.7135 56 72.1094 54.0052 75.2031 50.0156C78.2969 46.0365 79.8438 40.3698 79.8438 33.0156L79.8438 0L70.8125 0L70.8125 32.7188C70.8125 37.9583 69.8802 41.8437 68.0156 44.375C66.1615 46.9167 63.3333 48.1875 59.5313 48.1875C54.875 48.1875 51.1927 46.6406 48.4844 43.5469C45.7865 40.4635 44.4375 36.25 44.4375 30.9062L44.4375 0L35.4063 0L35.4063 32.7188C35.4063 37.9896 34.4792 41.8854 32.625 44.4063C30.7708 46.9271 27.9063 48.1875 24.0313 48.1875C19.4375 48.1875 15.7865 46.6354 13.0781 43.5312C10.3802 40.4271 9.03125 36.2188 9.03125 30.9062L9.03125 0L0 0L0 54.6875L9.03125 54.6875L9.03125 46.1875C11.0833 49.5417 13.5417 52.0156 16.4063 53.6094C19.2708 55.2031 22.6719 56 26.6094 56C30.5885 56 33.9688 54.9896 36.75 52.9688C39.5313 50.9583 41.5885 48.0313 42.9219 44.1875Z"/>
      <path id="DejaVuSans-70" transform="matrix(0 -0.125 -0.125 0 12.1621 33.6909)" fill="#000000" d="M9.03125 29L9.03125 0L0 0L0 75.4844L9.03125 75.4844L9.03125 67.1875C10.9271 70.4375 13.3125 72.849 16.1875 74.4219C19.0729 76.0052 22.5156 76.7969 26.5156 76.7969C33.1615 76.7969 38.5573 74.1615 42.7031 68.8906C46.8594 63.6198 48.9375 56.6875 48.9375 48.0938C48.9375 39.5 46.8594 32.5625 42.7031 27.2813C38.5573 22.0104 33.1615 19.375 26.5156 19.375C22.5156 19.375 19.0729 20.1667 16.1875 21.75C13.3125 23.3333 10.9271 25.75 9.03125 29ZM39.6094 48.0938C39.6094 54.6979 38.25 59.8802 35.5313 63.6406C32.8125 67.401 29.0781 69.2813 24.3281 69.2813C19.5677 69.2813 15.8281 67.401 13.1094 63.6406C10.3906 59.8802 9.03125 54.6979 9.03125 48.0938C9.03125 41.4896 10.3906 36.3073 13.1094 32.5469C15.8281 28.7865 19.5677 26.9063 24.3281 26.9063C29.0781 26.9063 32.8125 28.7865 35.5313 32.5469C38.25 36.3073 39.6094 41.4896 39.6094 48.0938Z"/>
      <path id="DejaVuSans-6f" transform="matrix(0 -0.125 -0.125 0 9.74023 26.2017)" fill="#000000" d="M25.0938 49.8125C20.2813 49.8125 16.474 47.9323 13.6719 44.1719C10.8698 40.4115 9.46875 35.2604 9.46875 28.7188C9.46875 22.1771 10.8594 17.026 13.6406 13.2656C16.4323 9.50521 20.25 7.625 25.0938 7.625C29.8854 7.625 33.6771 9.51042 36.4688 13.2813C39.2708 17.0625 40.6719 22.2083 40.6719 28.7188C40.6719 35.1979 39.2708 40.3333 36.4688 44.125C33.6771 47.9167 29.8854 49.8125 25.0938 49.8125ZM25.0938 57.4219C32.9063 57.4219 39.0417 54.8802 43.5 49.7969C47.9688 44.724 50.2031 37.6979 50.2031 28.7188C50.2031 19.7708 47.9688 12.7448 43.5 7.64063C39.0417 2.54688 32.9063 0 25.0938 0C17.25 0 11.1042 2.54688 6.65625 7.64063C2.21875 12.7448 0 19.7708 0 28.7188C0 37.6979 2.21875 44.724 6.65625 49.7969C11.1042 54.8802 17.25 57.4219 25.0938 57.4219Z"/>
      <path id="DejaVuSans-20" transform="matrix(0 -0.125 -0.125 0 9.5625 19.2434)" fill="#000000" d=""/>
      <path id="DejaVuSans-28" transform="matrix(0 -0.125 -0.125 0 11.2109 14.1958)" fill="#000000" d="M22.4063 89.0625C18.0521 81.5833 14.8125 74.1771 12.6875 66.8438C10.5729 59.5208 9.51563 52.099 9.51563 44.5781C9.51563 37.0677 10.5833 29.625 12.7188 22.25C14.8542 14.875 18.0833 7.45833 22.4063 0L14.5938 0C9.71875 7.65625 6.06771 15.1771 3.64063 22.5625C1.21354 29.9479 0 37.2865 0 44.5781C0 51.8385 1.20313 59.1458 3.60938 66.5C6.02604 73.8646 9.6875 81.3854 14.5938 89.0625Z"/>
      <path id="DejaVuSans-73" transform="matrix(0 -0.125 -0.125 0 9.74023 9.71558)" fill="#000000" d="M38.8594 54.5L38.8594 46C36.3281 47.3021 33.6927 48.276 30.9531 48.9219C28.224 49.5781 25.3906 49.9063 22.4531 49.9063C17.9948 49.9063 14.651 49.224 12.4219 47.8594C10.1927 46.4948 9.07813 44.4427 9.07813 41.7031C9.07813 39.6198 9.875 37.9844 11.4688 36.7969C13.0625 35.6094 16.2708 34.4792 21.0938 33.4063L24.1719 32.7188C30.5469 31.3542 35.0781 29.4271 37.7656 26.9375C40.4531 24.4479 41.7969 20.974 41.7969 16.5156C41.7969 11.4323 39.7865 7.40625 35.7656 4.4375C31.7448 1.47917 26.2188 0 19.1875 0C16.2604 0 13.2083 0.286458 10.0313 0.859375C6.85417 1.43229 3.51042 2.28646 0 3.42188L0 12.7031C3.32292 10.974 6.59375 9.67708 9.8125 8.8125C13.0313 7.95833 16.224 7.53125 19.3906 7.53125C23.6198 7.53125 26.8698 8.25521 29.1406 9.70313C31.4219 11.151 32.5625 13.1927 32.5625 15.8281C32.5625 18.2656 31.7396 20.1354 30.0938 21.4375C28.4583 22.7396 24.8542 23.9948 19.2813 25.2031L16.1563 25.9375C10.5938 27.1042 6.57292 28.901 4.09375 31.3281C1.625 33.7552 0.390625 37.0833 0.390625 41.3125C0.390625 46.4583 2.21354 50.4271 5.85938 53.2188C9.50521 56.0208 14.6823 57.4219 21.3906 57.4219C24.7031 57.4219 27.8229 57.1771 30.75 56.6875C33.6875 56.2083 36.3906 55.4792 38.8594 54.5Z"/>
      <path id="DejaVuSans-29" transform="matrix(0 -0.125 -0.125 0 11.2109 2.87891)" fill="#000000" d="M0 89.0625L7.8125 89.0625C12.6875 81.3854 16.3385 73.8646 18.7656 66.5C21.1927 59.1458 22.4063 51.8385 22.4063 44.5781C22.4063 37.2865 21.1927 29.9479 18.7656 22.5625C16.3385 15.1771 12.6875 7.65625 7.8125 0L0 0C4.32292 7.45833 7.55208 14.875 9.6875 22.25C11.8229 29.625 12.8906 37.0677 12.8906 44.5781C12.8906 52.099 11.8229 59.5208 9.6875 66.8438C7.55208 74.1771 4.32292 81.5833 0 89.0625Z"/>
     </g>
    </g>
   </g>
   <g id="line2d_13" transform="translate(67.7991, 32.0288)" fill="none">
    <path id="shape2" transform="matrix(1.25 0 0 1.25 2.26334 2.33808)" fill="none" stroke="#1f77b4" stroke-width="1.50000000000" stroke-linecap="square" stroke-linejoin="round" d="M0 241.919L10.4727 241.919L20.9455 241.919L31.4182 241.92L41.8909 241.92L52.3636 241.92L62.8364 241.919L73.3091 241.92L83.7818 241.919L94.2545 241.919L104.727 241.919L115.2 241.919L125.673 241.919L136.145 241.919L146.618 241.917L157.091 241.915L167.564 241.913L178.036 241.907L188.509 241.898L198.982 241.877L209.455 241.829L219.927 241.733L230.4 241.539L240.873 241.141L251.345 240.293L261.818 238.652L272.291 235.252L282.764 227.938L293.236 213.673L303.709 184.362L314.182 125.427L324.655 0"/>
   </g>
   <g id="patch_3" transform="translate(46.1465, 15.6219)" fill="none">
    <path id="shape3" transform="matrix(1.25 0 0 1.25 3.625 3.625)" fill="none" stroke="#000000" stroke-width="0.80000000000" stroke-linecap="square" stroke-linejoin="miter" stroke-miterlimit="2.00000000000" d="M0 266.112L0 0"/>
   </g>
   <g id="patch_4" transform="translate(492.546, 15.6219)" fill="none">
    <path id="shape4" transform="matrix(1.25 0 0 1.25 3.625 3.625)" fill="none" stroke="#000000" stroke-width="0.80000000000" stroke-linecap="square" stroke-linejoin="miter" stroke-miterlimit="2.00000000000" d="M0 266.112L0 0"/>
   </g>
   <g id="patch_5" transform="translate(46.1465, 348.262)" fill="none">
    <path id="shape5" transform="matrix(1.25 0 0 1.25 3.625 3.625)" fill="none" stroke="#000000" stroke-width="0.80000000000" stroke-linecap="square" stroke-linejoin="miter" stroke-miterlimit="2.00000000000" d="M0 0L357.12 0"/>
   </g>
   <g id="patch_6" transform="translate(46.1465, 15.6219)" fill="none">
    <path id="shape6" transform="matrix(1.25 0 0 1.25 3.625 3.625)" fill="none" stroke="#000000" stroke-width="0.80000000000" stroke-linecap="square" stroke-linejoin="miter" stroke-miterlimit="2.00000000000" d="M0 0L357.12 0"/>
   </g>
   <g id="text_15" transform="translate(197.008, -8.88178e-15)" fill="none">
    <g id="group26" transform="" fill="none">
     <path id="DejaVuSans-541" transform="matrix(0.15 0 0 -0.15 0.09375 11.7469)" fill="#000000" d="M0 72.9063L61.6719 72.9063L61.6719 64.5938L35.7969 64.5938L35.7969 0L25.8906 0L25.8906 64.5938L0 64.5938Z"/>
     <path id="DejaVuSans-651" transform="matrix(0.15 0 0 -0.15 10.0884 11.9602)" fill="#000000" d="M50.6875 31.0156L50.6875 26.625L9.375 26.625C9.77083 20.4375 11.6354 15.724 14.9688 12.4844C18.3021 9.24479 22.9479 7.625 28.9062 7.625C32.3542 7.625 35.6979 8.04688 38.9375 8.89063C42.1771 9.73438 45.3958 11.0052 48.5938 12.7031L48.5938 4.20313C45.3646 2.83854 42.0573 1.79688 38.6719 1.07813C35.2865 0.359375 31.8542 0 28.375 0C19.6458 0 12.7344 2.53646 7.64063 7.60938C2.54687 12.6927 0 19.5677 0 28.2344C0 37.1823 2.41667 44.2813 7.25 49.5313C12.0833 54.7917 18.6042 57.4219 26.8125 57.4219C34.1667 57.4219 39.9844 55.0521 44.2656 50.3125C48.5469 45.5833 50.6875 39.151 50.6875 31.0156ZM41.7031 33.6563C41.6406 38.5625 40.2656 42.4792 37.5781 45.4063C34.8906 48.3438 31.3333 49.8125 26.9063 49.8125C21.8958 49.8125 17.8854 48.3958 14.875 45.5625C11.8646 42.7292 10.1302 38.7396 9.67187 33.5938Z"/>
     <path id="DejaVuSans-6d1" transform="matrix(0.15 0 0 -0.15 19.8513 11.7469)" fill="#000000" d="M42.9219 44.1875C45.1719 48.2292 47.8594 51.2083 50.9844 53.125C54.1094 55.0417 57.7865 56 62.0156 56C67.7135 56 72.1094 54.0052 75.2031 50.0156C78.2969 46.0365 79.8438 40.3698 79.8438 33.0156L79.8438 0L70.8125 0L70.8125 32.7188C70.8125 37.9583 69.8802 41.8437 68.0156 44.375C66.1615 46.9167 63.3333 48.1875 59.5313 48.1875C54.875 48.1875 51.1927 46.6406 48.4844 43.5469C45.7865 40.4635 44.4375 36.25 44.4375 30.9062L44.4375 0L35.4063 0L35.4063 32.7188C35.4063 37.9896 34.4792 41.8854 32.625 44.4063C30.7708 46.9271 27.9063 48.1875 24.0313 48.1875C19.4375 48.1875 15.7865 46.6354 13.0781 43.5312C10.3802 40.4271 9.03125 36.2188 9.03125 30.9062L9.03125 0L0 0L0 54.6875L9.03125 54.6875L9.03125 46.1875C11.0833 49.5417 13.5417 52.0156 16.4063 53.6094C19.2708 55.2031 22.6719 56 26.6094 56C30.5885 56 33.9688 54.9896 36.75 52.9688C39.5313 50.9583 41.5885 48.0313 42.9219 44.1875Z"/>
     <path id="DejaVuSans-701" transform="matrix(0.15 0 0 -0.15 34.4631 14.8664)" fill="#000000" d="M9.03125 29L9.03125 0L0 0L0 75.4844L9.03125 75.4844L9.03125 67.1875C10.9271 70.4375 13.3125 72.849 16.1875 74.4219C19.0729 76.0052 22.5156 76.7969 26.5156 76.7969C33.1615 76.7969 38.5573 74.1615 42.7031 68.8906C46.8594 63.6198 48.9375 56.6875 48.9375 48.0938C48.9375 39.5 46.8594 32.5625 42.7031 27.2813C38.5573 22.0104 33.1615 19.375 26.5156 19.375C22.5156 19.375 19.0729 20.1667 16.1875 21.75C13.3125 23.3333 10.9271 25.75 9.03125 29ZM39.6094 48.0938C39.6094 54.6979 38.25 59.8802 35.5313 63.6406C32.8125 67.401 29.0781 69.2813 24.3281 69.2813C19.5677 69.2813 15.8281 67.401 13.1094 63.6406C10.3906 59.8802 9.03125 54.6979 9.03125 48.0938C9.03125 41.4896 10.3906 36.3073 13.1094 32.5469C15.8281 28.7865 19.5677 26.9063 24.3281 26.9063C29.0781 26.9063 32.8125 28.7865 35.5313 32.5469C38.25 36.3073 39.6094 41.4896 39.6094 48.0938Z"/>
     <path id="DejaVuSans-6f1" transform="matrix(0.15 0 0 -0.15 43.4502 11.9602)" fill="#000000" d="M25.0938 49.8125C20.2813 49.8125 16.474 47.9323 13.6719 44.1719C10.8698 40.4115 9.46875 35.2604 9.46875 28.7188C9.46875 22.1771 10.8594 17.026 13.6406 13.2656C16.4323 9.50521 20.25 7.625 25.0938 7.625C29.8854 7.625 33.6771 9.51042 36.4688 13.2813C39.2708 17.0625 40.6719 22.2083 40.6719 28.7188C40.6719 35.1979 39.2708 40.3333 36.4688 44.125C33.6771 47.9167 29.8854 49.8125 25.0938 49.8125ZM25.0938 57.4219C32.9063 57.4219 39.0417 54.8802 43.5 49.7969C47.9688 44.724 50.2031 37.6979 50.2031 28.7188C50.2031 19.7708 47.9688 12.7448 43.5 7.64063C39.0417 2.54688 32.9063 0 25.0938 0C17.25 0 11.1042 2.54688 6.65625 7.64063C2.21875 12.7448 0 19.7708 0 28.7188C0 37.6979 2.21875 44.724 6.65625 49.7969C11.1042 54.8802 17.25 57.4219 25.0938 57.4219Z"/>
     <path id="DejaVuSans-201" transform="matrix(0.15 0 0 -0.15 51.8001 11.7469)" fill="#000000" d=""/>
     <path id="DejaVuSans-64" transform="matrix(0.15 0 0 -0.15 57.3955 11.9602)" fill="#000000" d="M39.8906 47.8125L39.8906 77.4063L48.875 77.4063L48.875 1.42188L39.8906 1.42188L39.8906 9.625C38.0052 6.375 35.6198 3.95833 32.7344 2.375C29.8594 0.791667 26.401 0 22.3594 0C15.7552 0 10.375 2.63542 6.21875 7.90625C2.07292 13.1875 0 20.125 0 28.7187C0 37.3125 2.07292 44.2448 6.21875 49.5156C10.375 54.7865 15.7552 57.4219 22.3594 57.4219C26.401 57.4219 29.8594 56.6302 32.7344 55.0469C35.6198 53.474 38.0052 51.0625 39.8906 47.8125ZM9.28125 28.7187C9.28125 22.1146 10.6406 16.9323 13.3594 13.1719C16.0781 9.41146 19.8125 7.53125 24.5625 7.53125C29.3125 7.53125 33.0521 9.41146 35.7813 13.1719C38.5208 16.9323 39.8906 22.1146 39.8906 28.7187C39.8906 35.3229 38.5208 40.5052 35.7813 44.2656C33.0521 48.026 29.3125 49.9063 24.5625 49.9063C19.8125 49.9063 16.0781 48.026 13.3594 44.2656C10.6406 40.5052 9.28125 35.3229 9.28125 28.7187Z"/>
     <path id="DejaVuSans-652" transform="matrix(0.15 0 0 -0.15 66.917 11.9602)" fill="#000000" d="M50.6875 31.0156L50.6875 26.625L9.375 26.625C9.77083 20.4375 11.6354 15.724 14.9688 12.4844C18.3021 9.24479 22.9479 7.625 28.9062 7.625C32.3542 7.625 35.6979 8.04688 38.9375 8.89063C42.1771 9.73438 45.3958 11.0052 48.5938 12.7031L48.5938 4.20313C45.3646 2.83854 42.0573 1.79688 38.6719 1.07813C35.2865 0.359375 31.8542 0 28.375 0C19.6458 0 12.7344 2.53646 7.64063 7.60938C2.54687 12.6927 0 19.5677 0 28.2344C0 37.1823 2.41667 44.2813 7.25 49.5313C12.0833 54.7917 18.6042 57.4219 26.8125 57.4219C34.1667 57.4219 39.9844 55.0521 44.2656 50.3125C48.5469 45.5833 50.6875 39.151 50.6875 31.0156ZM41.7031 33.6563C41.6406 38.5625 40.2656 42.4792 37.5781 45.4063C34.8906 48.3438 31.3333 49.8125 26.9063 49.8125C21.8958 49.8125 17.8854 48.3958 14.875 45.5625C11.8646 42.7292 10.1302 38.7396 9.67187 33.5938Z"/>
     <path id="DejaVuSans-202" transform="matrix(0.15 0 0 -0.15 75.3182 11.7469)" fill="#000000" d=""/>
     <path id="DejaVuSans-653" transform="matrix(0.15 0 0 -0.15 80.9136 11.9602)" fill="#000000" d="M50.6875 31.0156L50.6875 26.625L9.375 26.625C9.77083 20.4375 11.6354 15.724 14.9688 12.4844C18.3021 9.24479 22.9479 7.625 28.9062 7.625C32.3542 7.625 35.6979 8.04688 38.9375 8.89063C42.1771 9.73438 45.3958 11.0052 48.5938 12.7031L48.5938 4.20313C45.3646 2.83854 42.0573 1.79688 38.6719 1.07813C35.2865 0.359375 31.8542 0 28.375 0C19.6458 0 12.7344 2.53646 7.64063 7.60938C2.54687 12.6927 0 19.5677 0 28.2344C0 37.1823 2.41667 44.2813 7.25 49.5313C12.0833 54.7917 18.6042 57.4219 26.8125 57.4219C34.1667 57.4219 39.9844 55.0521 44.2656 50.3125C48.5469 45.5833 50.6875 39.151 50.6875 31.0156ZM41.7031 33.6563C41.6406 38.5625 40.2656 42.4792 37.5781 45.4063C34.8906 48.3438 31.3333 49.8125 26.9063 49.8125C21.8958 49.8125 17.8854 48.3958 14.875 45.5625C11.8646 42.7292 10.1302 38.7396 9.67187 33.5938Z"/>
     <path id="DejaVuSans-78" transform="matrix(0.15 0 0 -0.15 89.7437 11.7469)" fill="#000000" d="M52.0156 54.6875L32.2344 28.0781L53.0313 0L42.4375 0L26.5156 21.4844L10.6094 0L0 0L21.25 28.6094L1.8125 54.6875L12.4062 54.6875L26.9063 35.2031L41.4063 54.6875Z"/>
     <path id="DejaVuSans-654" transform="matrix(0.15 0 0 -0.15 99.0097 11.9602)" fill="#000000" d="M50.6875 31.0156L50.6875 26.625L9.375 26.625C9.77083 20.4375 11.6354 15.724 14.9688 12.4844C18.3021 9.24479 22.9479 7.625 28.9062 7.625C32.3542 7.625 35.6979 8.04688 38.9375 8.89063C42.1771 9.73438 45.3958 11.0052 48.5938 12.7031L48.5938 4.20313C45.3646 2.83854 42.0573 1.79688 38.6719 1.07813C35.2865 0.359375 31.8542 0 28.375 0C19.6458 0 12.7344 2.53646 7.64063 7.60938C2.54687 12.6927 0 19.5677 0 28.2344C0 37.1823 2.41667 44.2813 7.25 49.5313C12.0833 54.7917 18.6042 57.4219 26.8125 57.4219C34.1667 57.4219 39.9844 55.0521 44.2656 50.3125C48.5469 45.5833 50.6875 39.151 50.6875 31.0156ZM41.7031 33.6563C41.6406 38.5625 40.2656 42.4792 37.5781 45.4063C34.8906 48.3438 31.3333 49.8125 26.9063 49.8125C21.8958 49.8125 17.8854 48.3958 14.875 45.5625C11.8646 42.7292 10.1302 38.7396 9.67187 33.5938Z"/>
     <path id="DejaVuSans-63" transform="matrix(0.15 0 0 -0.15 108.238 11.9602)" fill="#000000" d="M43.2656 54.0156L43.2656 45.6094C40.724 47.0156 38.1771 48.0677 35.625 48.7656C33.0729 49.4635 30.4948 49.8125 27.8906 49.8125C22.0573 49.8125 17.526 47.9635 14.2969 44.2656C11.0781 40.5781 9.46875 35.3958 9.46875 28.7188C9.46875 22.0417 11.0781 16.8542 14.2969 13.1563C17.526 9.46875 22.0573 7.625 27.8906 7.625C30.4948 7.625 33.0729 7.97396 35.625 8.67188C38.1771 9.36979 40.724 10.4219 43.2656 11.8281L43.2656 3.51563C40.7552 2.34896 38.1563 1.47396 35.4687 0.890625C32.7917 0.296875 29.9375 0 26.9063 0C18.6667 0 12.1198 2.58854 7.26562 7.76563C2.42187 12.9427 0 19.9271 0 28.7188C0 37.6354 2.44792 44.6458 7.34375 49.75C12.25 54.8646 18.9688 57.4219 27.5 57.4219C30.2604 57.4219 32.9583 57.1354 35.5938 56.5625C38.2292 56 40.7865 55.151 43.2656 54.0156Z"/>
     <path id="DejaVuSans-75" transform="matrix(0.15 0 0 -0.15 116.933 11.9602)" fill="#000000" d="M0 23L0 56.1094L8.98438 56.1094L8.98438 23.3438C8.98438 18.1667 9.98958 14.2813 12 11.6875C14.0208 9.10417 17.0521 7.8125 21.0938 7.8125C25.9375 7.8125 29.7656 9.35938 32.5781 12.4531C35.401 15.5469 36.8125 19.7656 36.8125 25.1094L36.8125 56.1094L45.7969 56.1094L45.7969 1.42188L36.8125 1.42188L36.8125 9.82813C34.6354 6.50521 32.1042 4.03646 29.2188 2.42188C26.3438 0.807292 23 0 19.1875 0C12.9063 0 8.13542 1.95313 4.875 5.85938C1.625 9.76563 0 15.4792 0 23ZM22.6094 57.4219"/>
     <path id="DejaVuSans-e7" transform="matrix(0.15 0 0 -0.15 125.992 14.6391)" fill="#000000" d="M43.2656 71.875L43.2656 63.4688C40.724 64.875 38.1771 65.9271 35.625 66.625C33.0729 67.3229 30.4948 67.6719 27.8906 67.6719C22.0573 67.6719 17.526 65.8229 14.2969 62.125C11.0781 58.4375 9.46875 53.2552 9.46875 46.5781C9.46875 39.901 11.0781 34.7135 14.2969 31.0156C17.526 27.3281 22.0573 25.4844 27.8906 25.4844C30.4948 25.4844 33.0729 25.8333 35.625 26.5313C38.1771 27.2292 40.724 28.2813 43.2656 29.6875L43.2656 21.375C40.7552 20.2083 38.1563 19.3333 35.4687 18.75C32.7917 18.1563 29.9375 17.8594 26.9063 17.8594C18.6667 17.8594 12.1198 20.4479 7.26562 25.625C2.42187 30.8021 0 37.7865 0 46.5781C0 55.4948 2.44792 62.5052 7.34375 67.6094C12.25 72.724 18.9688 75.2813 27.5 75.2813C30.2604 75.2813 32.9583 74.9948 35.5938 74.4219C38.2292 73.8594 40.7865 73.0104 43.2656 71.875ZM30.5937 19.2813C32.375 17.2604 33.7031 15.3958 34.5781 13.6875C35.4635 11.9792 35.9063 10.3438 35.9063 8.78125C35.9063 5.88542 34.9271 3.69792 32.9687 2.21875C31.0208 0.739583 28.125 0 24.2812 0C22.7917 0 21.3385 0.0989583 19.9219 0.296875C18.5052 0.484375 17.0938 0.776042 15.6875 1.17188L15.6875 7.5625C16.8021 7.01042 17.9583 6.61458 19.1563 6.375C20.3646 6.125 21.7344 6 23.2656 6C25.1823 6 26.6302 6.39063 27.6094 7.17188C28.5885 7.95313 29.0781 9.09375 29.0781 10.5938C29.0781 11.5625 28.724 12.7552 28.0156 14.1719C27.3177 15.5885 26.2396 17.2917 24.7813 19.2813Z"/>
     <path id="DejaVuSans-e3" transform="matrix(0.15 0 0 -0.15 134.312 11.9602)" fill="#000000" d="M28.2812 28.9063C21.0208 28.9063 15.9896 28.0781 13.1875 26.4219C10.3854 24.7656 8.98437 21.9323 8.98437 17.9219C8.98437 14.7344 10.0365 12.2031 12.1406 10.3281C14.2448 8.46354 17.099 7.53125 20.7031 7.53125C25.6927 7.53125 29.6927 9.29688 32.7031 12.8281C35.7135 16.3594 37.2188 21.0521 37.2188 26.9063L37.2188 28.9063ZM46.2031 32.625L46.2031 1.42188L37.2188 1.42188L37.2188 9.71875C35.1667 6.40625 32.6094 3.95833 29.5469 2.375C26.4844 0.791667 22.7396 0 18.3125 0C12.7187 0 8.26563 1.57292 4.95312 4.71875C1.65104 7.86458 0 12.0729 0 17.3438C0 23.4896 2.05729 28.125 6.17188 31.25C10.2969 34.375 16.4427 35.9375 24.6094 35.9375L37.2188 35.9375L37.2188 36.8281C37.2188 40.9635 35.8594 44.1615 33.1406 46.4219C30.4219 48.6823 26.6042 49.8125 21.6875 49.8125C18.5625 49.8125 15.5156 49.4375 12.5469 48.6875C9.58854 47.9375 6.74479 46.8125 4.01563 45.3125L4.01563 53.625C7.29687 54.8958 10.4844 55.8438 13.5781 56.4688C16.6719 57.1042 19.6823 57.4219 22.6094 57.4219C30.526 57.4219 36.4375 55.3698 40.3438 51.2656C44.25 47.1719 46.2031 40.9583 46.2031 32.625ZM22.8125 68.3125L20.0156 71C19.3073 71.6563 18.6823 72.1354 18.1406 72.4375C17.6094 72.75 17.1302 72.9063 16.7031 72.9063C15.4635 72.9063 14.5521 72.3125 13.9687 71.125C13.3854 69.9375 13.0573 68.0104 12.9844 65.3438L6.89062 65.3438C6.95312 69.7396 7.8125 73.1302 9.46875 75.5156C11.1354 77.9115 13.4479 79.1094 16.4062 79.1094C17.6458 79.1094 18.7865 78.8802 19.8281 78.4219C20.8698 77.9635 21.9948 77.1979 23.2031 76.125L25.9844 73.4375C26.6927 72.7917 27.3177 72.3125 27.8594 72C28.401 71.6979 28.8802 71.5469 29.2969 71.5469C30.5365 71.5469 31.4479 72.1406 32.0312 73.3281C32.6146 74.5156 32.9427 76.4427 33.0156 79.1094L39.1094 79.1094C39.0469 74.7135 38.1823 71.3177 36.5156 68.9219C34.8594 66.5365 32.5521 65.3438 29.5937 65.3438C28.3542 65.3438 27.2135 65.5677 26.1719 66.0156C25.1302 66.474 24.0104 67.2396 22.8125 68.3125Z"/>
     <path id="DejaVuSans-6f2" transform="matrix(0.15 0 0 -0.15 143.431 11.9602)" fill="#000000" d="M25.0938 49.8125C20.2813 49.8125 16.474 47.9323 13.6719 44.1719C10.8698 40.4115 9.46875 35.2604 9.46875 28.7188C9.46875 22.1771 10.8594 17.026 13.6406 13.2656C16.4323 9.50521 20.25 7.625 25.0938 7.625C29.8854 7.625 33.6771 9.51042 36.4688 13.2813C39.2708 17.0625 40.6719 22.2083 40.6719 28.7188C40.6719 35.1979 39.2708 40.3333 36.4688 44.125C33.6771 47.9167 29.8854 49.8125 25.0938 49.8125ZM25.0938 57.4219C32.9063 57.4219 39.0417 54.8802 43.5 49.7969C47.9688 44.724 50.2031 37.6979 50.2031 28.7188C50.2031 19.7708 47.9688 12.7448 43.5 7.64063C39.0417 2.54688 32.9063 0 25.0938 0C17.25 0 11.1042 2.54688 6.65625 7.64063C2.21875 12.7448 0 19.7708 0 28.7188C0 37.6979 2.21875 44.724 6.65625 49.7969C11.1042 54.8802 17.25 57.4219 25.0938 57.4219Z"/>
    </g>
   </g>
  </g>
 </g>
</svg>
