<?xml version="1.0" standalone="no"?>
<!DOCTYPE svg PUBLIC "-//W3C//DTD SVG 20010904//EN" "http://www.w3.org/TR/2001/REC-SVG-20010904/DTD/svg10.dtd">
<!-- Created using Karbon, part of Calligra: http://www.calligra.org/karbon -->
<svg xmlns="http://www.w3.org/2000/svg" xmlns:xlink="http://www.w3.org/1999/xlink" width="460pt" height="345pt">
<defs/>
<g id="figure_1">
  <g id="patch_1" transform="translate(-0.78125, -0.78125)" fill="none">
   <path id="shape0" transform="matrix(1.25 0 0 1.25 10.0004 27.4143)" fill="#ffffff" d="M0 320.416L413.836 320.416L413.836 0L0 0Z"/>
  </g>
  <g id="axes_1" transform="translate(14.2617, 32.2486)" fill="none">
   <g id="patch_2" transform="translate(56.957, 18.8102)" fill="none">
    <path id="shape1" transform="matrix(1.25 0 0 1.25 0.78125 0.78125)" fill="#ffffff" d="M0 266.112L357.12 266.112L357.12 0L0 0Z"/>
   </g>
   <g id="matplotlib.axis_1" transform="translate(61.7078, 351.231)" fill="none">
    <g id="xtick_1" transform="" fill="none">
     <g id="line2d_1" transform="translate(2.23047, -7.10543e-14)" fill="none">
      <g id="group0" transform="" fill="none">
       <path id="m9d54cc5159" transform="matrix(1.25 0 0 1.25 1 1)" fill="#000000" stroke="#000000" stroke-width="0.80000000000" stroke-linecap="butt" stroke-linejoin="round" d="M0 0L0 3.5"/>
      </g>
     </g>
     <g id="text_1" transform="translate(-8.88178e-15, 9.89258)" fill="none">
      <g id="group1" transform="" fill="none">
       <path id="DejaVuSans-30" transform="matrix(0.125 0 0 -0.125 0.078125 9.5332)" fill="#000000" d="M25.1875 67.8281C20.1146 67.8281 16.2969 65.3281 13.7344 60.3281C11.1823 55.3385 9.90625 47.8281 9.90625 37.7969C9.90625 27.8073 11.1823 20.3125 13.7344 15.3125C16.2969 10.3125 20.1146 7.8125 25.1875 7.8125C30.3021 7.8125 34.1354 10.3125 36.6875 15.3125C39.25 20.3125 40.5313 27.8073 40.5313 37.7969C40.5313 47.8281 39.25 55.3385 36.6875 60.3281C34.1354 65.3281 30.3021 67.8281 25.1875 67.8281ZM25.1875 75.6406C33.3646 75.6406 39.6094 72.4063 43.9219 65.9375C48.2344 59.4792 50.3906 50.099 50.3906 37.7969C50.3906 25.526 48.2344 16.1563 43.9219 9.6875C39.6094 3.22917 33.3646 0 25.1875 0C17.0208 0 10.7813 3.22917 6.46875 9.6875C2.15625 16.1563 0 25.526 0 37.7969C0 50.099 2.15625 59.4792 6.46875 65.9375C10.7813 72.4063 17.0208 75.6406 25.1875 75.6406Z"/>
      </g>
     </g>
    </g>
    <g id="xtick_2" transform="translate(62.0268, 7.10543e-14)" fill="none">
     <g id="line2d_2" transform="translate(5.6582, -7.10543e-14)" fill="none">
      <g id="group2" transform="" fill="none">
       <path id="m9d54cc51591" transform="matrix(1.25 0 0 1.25 1 1)" fill="#000000" stroke="#000000" stroke-width="0.80000000000" stroke-linecap="butt" stroke-linejoin="round" d="M0 0L0 3.5"/>
      </g>
     </g>
     <g id="text_2" transform="translate(0, 9.89258)" fill="none">
      <g id="group3" transform="" fill="none">
       <path id="DejaVuSans-31" transform="matrix(0.125 0 0 -0.125 0.078125 9.35547)" fill="#000000" d="M1.42188 8.29688L17.5313 8.29688L17.5313 63.9219L0 60.4063L0 69.3906L17.4375 72.9063L27.2969 72.9063L27.2969 8.29688L43.4063 8.29688L43.4063 0L1.42188 0Z"/>
       <path id="DejaVuSans-301" transform="matrix(0.125 0 0 -0.125 7.48218 9.5332)" fill="#000000" d="M25.1875 67.8281C20.1146 67.8281 16.2969 65.3281 13.7344 60.3281C11.1823 55.3385 9.90625 47.8281 9.90625 37.7969C9.90625 27.8073 11.1823 20.3125 13.7344 15.3125C16.2969 10.3125 20.1146 7.8125 25.1875 7.8125C30.3021 7.8125 34.1354 10.3125 36.6875 15.3125C39.25 20.3125 40.5313 27.8073 40.5313 37.7969C40.5313 47.8281 39.25 55.3385 36.6875 60.3281C34.1354 65.3281 30.3021 67.8281 25.1875 67.8281ZM25.1875 75.6406C33.3646 75.6406 39.6094 72.4063 43.9219 65.9375C48.2344 59.4792 50.3906 50.099 50.3906 37.7969C50.3906 25.526 48.2344 16.1563 43.9219 9.6875C39.6094 3.22917 33.3646 0 25.1875 0C17.0208 0 10.7813 3.22917 6.46875 9.6875C2.15625 16.1563 0 25.526 0 37.7969C0 50.099 2.15625 59.4792 6.46875 65.9375C10.7813 72.4063 17.0208 75.6406 25.1875 75.6406Z"/>
      </g>
     </g>
    </g>
    <g id="xtick_3" transform="translate(127.024, 7.10543e-14)" fill="none">
     <g id="line2d_3" transform="translate(6.11523, -7.10543e-14)" fill="none">
      <g id="group4" transform="" fill="none">
       <path id="m9d54cc51592" transform="matrix(1.25 0 0 1.25 1 1)" fill="#000000" stroke="#000000" stroke-width="0.80000000000" stroke-linecap="butt" stroke-linejoin="round" d="M0 0L0 3.5"/>
      </g>
     </g>
     <g id="text_3" transform="translate(0, 9.89258)" fill="none">
      <g id="group5" transform="" fill="none">
       <path id="DejaVuSans-32" transform="matrix(0.125 0 0 -0.125 0.078125 9.35547)" fill="#000000" d="M11.8594 8.29688L46.2813 8.29688L46.2813 0L0 0L0 8.29688C3.73958 12.1719 8.83854 17.3698 15.2969 23.8906C21.7656 30.4219 25.8281 34.6354 27.4844 36.5313C30.6406 40.0729 32.8438 43.0729 34.0938 45.5313C35.3542 47.9896 35.9844 50.4063 35.9844 52.7813C35.9844 56.6563 34.625 59.8125 31.9063 62.25C29.1875 64.6979 25.6458 65.9219 21.2813 65.9219C18.1875 65.9219 14.9219 65.3854 11.4844 64.3125C8.05729 63.2396 4.39063 61.6094 0.484375 59.4219L0.484375 69.3906C4.45312 70.9844 8.16146 72.1875 11.6094 73C15.0677 73.8125 18.2292 74.2188 21.0938 74.2188C28.6458 74.2188 34.6667 72.3281 39.1562 68.5469C43.6458 64.776 45.8906 59.7344 45.8906 53.4219C45.8906 50.4219 45.3281 47.5781 44.2031 44.8906C43.0885 42.2135 41.0469 39.0521 38.0781 35.4063C37.2656 34.4583 34.6771 31.7292 30.3125 27.2188C25.9583 22.7083 19.8073 16.401 11.8594 8.29688Z"/>
       <path id="DejaVuSans-302" transform="matrix(0.125 0 0 -0.125 7.93921 9.5332)" fill="#000000" d="M25.1875 67.8281C20.1146 67.8281 16.2969 65.3281 13.7344 60.3281C11.1823 55.3385 9.90625 47.8281 9.90625 37.7969C9.90625 27.8073 11.1823 20.3125 13.7344 15.3125C16.2969 10.3125 20.1146 7.8125 25.1875 7.8125C30.3021 7.8125 34.1354 10.3125 36.6875 15.3125C39.25 20.3125 40.5313 27.8073 40.5313 37.7969C40.5313 47.8281 39.25 55.3385 36.6875 60.3281C34.1354 65.3281 30.3021 67.8281 25.1875 67.8281ZM25.1875 75.6406C33.3646 75.6406 39.6094 72.4063 43.9219 65.9375C48.2344 59.4792 50.3906 50.099 50.3906 37.7969C50.3906 25.526 48.2344 16.1563 43.9219 9.6875C39.6094 3.22917 33.3646 0 25.1875 0C17.0208 0 10.7813 3.22917 6.46875 9.6875C2.15625 16.1563 0 25.526 0 37.7969C0 50.099 2.15625 59.4792 6.46875 65.9375C10.7813 72.4063 17.0208 75.6406 25.1875 75.6406Z"/>
      </g>
     </g>
    </g>
    <g id="xtick_4" transform="translate(192.516, 7.10543e-14)" fill="none">
     <g id="line2d_4" transform="translate(6.07812, -7.10543e-14)" fill="none">
      <g id="group6" transform="" fill="none">
       <path id="m9d54cc51593" transform="matrix(1.25 0 0 1.25 1 1)" fill="#000000" stroke="#000000" stroke-width="0.80000000000" stroke-linecap="butt" stroke-linejoin="round" d="M0 0L0 3.5"/>
      </g>
     </g>
     <g id="text_4" transform="translate(0, 9.89258)" fill="none">
      <g id="group7" transform="" fill="none">
       <path id="DejaVuSans-33" transform="matrix(0.125 0 0 -0.125 0.078125 9.5332)" fill="#000000" d="M32.9531 40.7344C37.6719 39.724 41.3542 37.6198 44 34.4219C46.6563 31.2344 47.9844 27.2969 47.9844 22.6094C47.9844 15.4219 45.5104 9.85417 40.5625 5.90625C35.6146 1.96875 28.5833 0 19.4688 0C16.4167 0 13.2708 0.302083 10.0313 0.90625C6.79167 1.51042 3.44792 2.41667 0 3.625L0 13.1406C2.72917 11.5469 5.71875 10.3438 8.96875 9.53125C12.2292 8.71875 15.6354 8.3125 19.1875 8.3125C25.3646 8.3125 30.0729 9.53125 33.3125 11.9688C36.5521 14.4063 38.1719 17.9531 38.1719 22.6094C38.1719 26.9115 36.6667 30.2708 33.6563 32.6875C30.6458 35.1146 26.4583 36.3281 21.0938 36.3281L12.5938 36.3281L12.5938 44.4375L21.4844 44.4375C26.3281 44.4375 30.0365 45.4063 32.6094 47.3438C35.1823 49.2813 36.4688 52.0729 36.4688 55.7188C36.4688 59.4583 35.1406 62.3281 32.4844 64.3281C29.8385 66.3385 26.0417 67.3438 21.0938 67.3438C18.3854 67.3438 15.4844 67.0469 12.3906 66.4531C9.29688 65.8698 5.89583 64.9635 2.1875 63.7344L2.1875 72.5156C5.9375 73.5573 9.44792 74.3385 12.7188 74.8594C15.9896 75.3802 19.0729 75.6406 21.9688 75.6406C29.4583 75.6406 35.3802 73.9375 39.7344 70.5313C44.099 67.1354 46.2813 62.5417 46.2813 56.75C46.2813 52.7083 45.125 49.2969 42.8125 46.5156C40.5 43.7344 37.2135 41.8073 32.9531 40.7344Z"/>
       <path id="DejaVuSans-303" transform="matrix(0.125 0 0 -0.125 7.9021 9.5332)" fill="#000000" d="M25.1875 67.8281C20.1146 67.8281 16.2969 65.3281 13.7344 60.3281C11.1823 55.3385 9.90625 47.8281 9.90625 37.7969C9.90625 27.8073 11.1823 20.3125 13.7344 15.3125C16.2969 10.3125 20.1146 7.8125 25.1875 7.8125C30.3021 7.8125 34.1354 10.3125 36.6875 15.3125C39.25 20.3125 40.5313 27.8073 40.5313 37.7969C40.5313 47.8281 39.25 55.3385 36.6875 60.3281C34.1354 65.3281 30.3021 67.8281 25.1875 67.8281ZM25.1875 75.6406C33.3646 75.6406 39.6094 72.4063 43.9219 65.9375C48.2344 59.4792 50.3906 50.099 50.3906 37.7969C50.3906 25.526 48.2344 16.1563 43.9219 9.6875C39.6094 3.22917 33.3646 0 25.1875 0C17.0208 0 10.7813 3.22917 6.46875 9.6875C2.15625 16.1563 0 25.526 0 37.7969C0 50.099 2.15625 59.4792 6.46875 65.9375C10.7813 72.4063 17.0208 75.6406 25.1875 75.6406Z"/>
      </g>
     </g>
    </g>
    <g id="xtick_5" transform="translate(257.629, 7.10543e-14)" fill="none">
     <g id="line2d_5" transform="translate(6.41992, -7.10543e-14)" fill="none">
      <g id="group8" transform="" fill="none">
       <path id="m9d54cc51594" transform="matrix(1.25 0 0 1.25 1 1)" fill="#000000" stroke="#000000" stroke-width="0.80000000000" stroke-linecap="butt" stroke-linejoin="round" d="M0 0L0 3.5"/>
      </g>
     </g>
     <g id="text_5" transform="translate(0, 9.89258)" fill="none">
      <g id="group9" transform="" fill="none">
       <path id="DejaVuSans-34" transform="matrix(0.125 0 0 -0.125 0.078125 9.35547)" fill="#000000" d="M32.9063 64.3125L8 25.3906L32.9063 25.3906ZM30.3125 72.9063L42.7188 72.9063L42.7188 25.3906L53.125 25.3906L53.125 17.1875L42.7188 17.1875L42.7188 0L32.9063 0L32.9063 17.1875L0 17.1875L0 26.7031Z"/>
       <path id="DejaVuSans-304" transform="matrix(0.125 0 0 -0.125 8.2439 9.5332)" fill="#000000" d="M25.1875 67.8281C20.1146 67.8281 16.2969 65.3281 13.7344 60.3281C11.1823 55.3385 9.90625 47.8281 9.90625 37.7969C9.90625 27.8073 11.1823 20.3125 13.7344 15.3125C16.2969 10.3125 20.1146 7.8125 25.1875 7.8125C30.3021 7.8125 34.1354 10.3125 36.6875 15.3125C39.25 20.3125 40.5313 27.8073 40.5313 37.7969C40.5313 47.8281 39.25 55.3385 36.6875 60.3281C34.1354 65.3281 30.3021 67.8281 25.1875 67.8281ZM25.1875 75.6406C33.3646 75.6406 39.6094 72.4063 43.9219 65.9375C48.2344 59.4792 50.3906 50.099 50.3906 37.7969C50.3906 25.526 48.2344 16.1563 43.9219 9.6875C39.6094 3.22917 33.3646 0 25.1875 0C17.0208 0 10.7813 3.22917 6.46875 9.6875C2.15625 16.1563 0 25.526 0 37.7969C0 50.099 2.15625 59.4792 6.46875 65.9375C10.7813 72.4063 17.0208 75.6406 25.1875 75.6406Z"/>
      </g>
     </g>
    </g>
    <g id="xtick_6" transform="translate(323.437, 7.10543e-14)" fill="none">
     <g id="line2d_6" transform="translate(6.06641, -7.10543e-14)" fill="none">
      <g id="group10" transform="" fill="none">
       <path id="m9d54cc51595" transform="matrix(1.25 0 0 1.25 1 1)" fill="#000000" stroke="#000000" stroke-width="0.80000000000" stroke-linecap="butt" stroke-linejoin="round" d="M0 0L0 3.5"/>
      </g>
     </g>
     <g id="text_6" transform="translate(7.10543e-14, 9.89258)" fill="none">
      <g id="group11" transform="" fill="none">
       <path id="DejaVuSans-35" transform="matrix(0.125 0 0 -0.125 0.078125 9.5332)" fill="#000000" d="M3.07813 74.3281L41.7969 74.3281L41.7969 66.0156L12.1094 66.0156L12.1094 48.1563C13.5365 48.6458 14.9635 49.0104 16.3906 49.25C17.8281 49.4896 19.2656 49.6094 20.7031 49.6094C28.8385 49.6094 35.2813 47.3802 40.0313 42.9219C44.7917 38.4635 47.1719 32.4271 47.1719 24.8125C47.1719 16.9688 44.7292 10.8698 39.8437 6.51562C34.9583 2.17188 28.0729 0 19.1875 0C16.125 0 13.0052 0.260417 9.82812 0.78125C6.66146 1.30208 3.38542 2.08333 0 3.125L0 13.0469C2.92708 11.4531 5.95312 10.2656 9.07813 9.48438C12.2031 8.70313 15.5052 8.3125 18.9844 8.3125C24.6198 8.3125 29.0781 9.79167 32.3594 12.75C35.651 15.7083 37.2969 19.7292 37.2969 24.8125C37.2969 29.8854 35.651 33.901 32.3594 36.8594C29.0781 39.8281 24.6198 41.3125 18.9844 41.3125C16.349 41.3125 13.7188 41.0208 11.0938 40.4375C8.47917 39.8542 5.80729 38.9427 3.07813 37.7031Z"/>
       <path id="DejaVuSans-305" transform="matrix(0.125 0 0 -0.125 7.89038 9.5332)" fill="#000000" d="M25.1875 67.8281C20.1146 67.8281 16.2969 65.3281 13.7344 60.3281C11.1823 55.3385 9.90625 47.8281 9.90625 37.7969C9.90625 27.8073 11.1823 20.3125 13.7344 15.3125C16.2969 10.3125 20.1146 7.8125 25.1875 7.8125C30.3021 7.8125 34.1354 10.3125 36.6875 15.3125C39.25 20.3125 40.5313 27.8073 40.5313 37.7969C40.5313 47.8281 39.25 55.3385 36.6875 60.3281C34.1354 65.3281 30.3021 67.8281 25.1875 67.8281ZM25.1875 75.6406C33.3646 75.6406 39.6094 72.4063 43.9219 65.9375C48.2344 59.4792 50.3906 50.099 50.3906 37.7969C50.3906 25.526 48.2344 16.1563 43.9219 9.6875C39.6094 3.22917 33.3646 0 25.1875 0C17.0208 0 10.7813 3.22917 6.46875 9.6875C2.15625 16.1563 0 25.526 0 37.7969C0 50.099 2.15625 59.4792 6.46875 65.9375C10.7813 72.4063 17.0208 75.6406 25.1875 75.6406Z"/>
      </g>
     </g>
    </g>
    <g id="xtick_7" transform="translate(388.8, 7.10543e-14)" fill="none">
     <g id="line2d_7" transform="translate(6.1582, -7.10543e-14)" fill="none">
      <g id="group12" transform="" fill="none">
       <path id="m9d54cc51596" transform="matrix(1.25 0 0 1.25 1 1)" fill="#000000" stroke="#000000" stroke-width="0.80000000000" stroke-linecap="butt" stroke-linejoin="round" d="M0 0L0 3.5"/>
      </g>
     </g>
     <g id="text_7" transform="translate(0, 9.89258)" fill="none">
      <g id="group13" transform="" fill="none">
       <path id="DejaVuSans-36" transform="matrix(0.125 0 0 -0.125 0.078125 9.5332)" fill="#000000" d="M26.0313 41.7969C21.6042 41.7969 18.0938 40.2813 15.5 37.25C12.9167 34.2292 11.625 30.0833 11.625 24.8125C11.625 19.5729 12.9167 15.4271 15.5 12.375C18.0938 9.33333 21.6042 7.8125 26.0313 7.8125C30.4583 7.8125 33.9635 9.33333 36.5469 12.375C39.1302 15.4271 40.4219 19.5729 40.4219 24.8125C40.4219 30.0833 39.1302 34.2292 36.5469 37.25C33.9635 40.2813 30.4583 41.7969 26.0313 41.7969ZM45.6094 72.7188L45.6094 63.7344C43.1302 64.901 40.6302 65.7917 38.1094 66.4063C35.5885 67.0313 33.0885 67.3438 30.6094 67.3438C24.099 67.3438 19.125 65.1458 15.6875 60.75C12.2604 56.3542 10.3021 49.7135 9.8125 40.8281C11.7292 43.6615 14.1354 45.8333 17.0312 47.3438C19.9375 48.8542 23.1302 49.6094 26.6094 49.6094C33.9323 49.6094 39.7188 47.3854 43.9688 42.9375C48.2187 38.5 50.3438 32.4583 50.3438 24.8125C50.3438 17.3229 48.1302 11.3125 43.7031 6.78125C39.276 2.26042 33.3854 0 26.0313 0C17.5938 0 11.1458 3.22917 6.6875 9.6875C2.22917 16.1563 0 25.526 0 37.7969C0 49.3177 2.73438 58.5052 8.20312 65.3594C13.6719 72.2135 21.0104 75.6406 30.2187 75.6406C32.6979 75.6406 35.1979 75.3958 37.7188 74.9063C40.2396 74.4167 42.8698 73.6875 45.6094 72.7188Z"/>
       <path id="DejaVuSans-306" transform="matrix(0.125 0 0 -0.125 7.98218 9.5332)" fill="#000000" d="M25.1875 67.8281C20.1146 67.8281 16.2969 65.3281 13.7344 60.3281C11.1823 55.3385 9.90625 47.8281 9.90625 37.7969C9.90625 27.8073 11.1823 20.3125 13.7344 15.3125C16.2969 10.3125 20.1146 7.8125 25.1875 7.8125C30.3021 7.8125 34.1354 10.3125 36.6875 15.3125C39.25 20.3125 40.5313 27.8073 40.5313 37.7969C40.5313 47.8281 39.25 55.3385 36.6875 60.3281C34.1354 65.3281 30.3021 67.8281 25.1875 67.8281ZM25.1875 75.6406C33.3646 75.6406 39.6094 72.4063 43.9219 65.9375C48.2344 59.4792 50.3906 50.099 50.3906 37.7969C50.3906 25.526 48.2344 16.1563 43.9219 9.6875C39.6094 3.22917 33.3646 0 25.1875 0C17.0208 0 10.7813 3.22917 6.46875 9.6875C2.15625 16.1563 0 25.526 0 37.7969C0 50.099 2.15625 59.4792 6.46875 65.9375C10.7813 72.4063 17.0208 75.6406 25.1875 75.6406Z"/>
      </g>
     </g>
    </g>
    <g id="text_8" transform="translate(215.703, 27.1543)" fill="none">
     <g id="group14" transform="" fill="none">
      <path id="DejaVuSans-4e" transform="matrix(0.125 0 0 -0.125 0.078125 9.19141)" fill="#000000" d="M0 72.9063L13.2813 72.9063L45.6094 11.9219L45.6094 72.9063L55.1719 72.9063L55.1719 0L41.8906 0L9.57813 60.9844L9.57813 0L0 0Z"/>
     </g>
    </g>
   </g>
   <g id="matplotlib.axis_2" transform="translate(-1.55431e-14, 59.3695)" fill="none">
    <g id="ytick_1" transform="translate(17.9453, 243.871)" fill="none">
     <g id="line2d_8" transform="translate(34.418, 3.60644)" fill="none">
      <g id="group15" transform="" fill="none">
       <path id="md5204c59f4" transform="matrix(1.25 0 0 1.25 1 1)" fill="#000000" stroke="#000000" stroke-width="0.80000000000" stroke-linecap="butt" stroke-linejoin="round" d="M3.5 0L0 0"/>
      </g>
     </g>
     <g id="text_9" transform="" fill="none">
      <g id="group16" transform="" fill="none">
       <path id="DejaVuSans-38" transform="matrix(0.125 0 0 -0.125 0.078125 9.5332)" fill="#000000" d="M25 36.0469C20.3125 36.0469 16.625 34.7917 13.9375 32.2813C11.2604 29.7708 9.92188 26.3229 9.92188 21.9375C9.92188 17.5417 11.2604 14.0885 13.9375 11.5781C16.625 9.06771 20.3125 7.8125 25 7.8125C29.6875 7.8125 33.3802 9.07292 36.0781 11.5938C38.7865 14.125 40.1406 17.5729 40.1406 21.9375C40.1406 26.3229 38.7969 29.7708 36.1094 32.2813C33.4323 34.7917 29.7292 36.0469 25 36.0469ZM15.1406 40.2344C10.9115 41.276 7.61458 43.2448 5.25 46.1406C2.89583 49.0469 1.71875 52.5833 1.71875 56.75C1.71875 62.5729 3.79167 67.1771 7.9375 70.5625C12.0938 73.9479 17.7813 75.6406 25 75.6406C32.2604 75.6406 37.9583 73.9479 42.0938 70.5625C46.2292 67.1771 48.2969 62.5729 48.2969 56.75C48.2969 52.5833 47.1146 49.0469 44.75 46.1406C42.3958 43.2448 39.1198 41.276 34.9219 40.2344C39.6719 39.1302 43.3698 36.9635 46.0156 33.7344C48.6719 30.5156 50 26.5833 50 21.9375C50 14.8646 47.8438 9.4375 43.5313 5.65625C39.2188 1.88542 33.0417 0 25 0C16.9688 0 10.7917 1.88542 6.46875 5.65625C2.15625 9.4375 0 14.8646 0 21.9375C0 26.5833 1.33333 30.5156 4 33.7344C6.67708 36.9635 10.3906 39.1302 15.1406 40.2344ZM11.5313 55.8125C11.5313 52.0417 12.7083 49.099 15.0625 46.9844C17.4271 44.8698 20.7396 43.8125 25 43.8125C29.2396 43.8125 32.5521 44.8698 34.9375 46.9844C37.3333 49.099 38.5313 52.0417 38.5313 55.8125C38.5313 59.5938 37.3333 62.5417 34.9375 64.6563C32.5521 66.7708 29.2396 67.8281 25 67.8281C20.7396 67.8281 17.4271 66.7708 15.0625 64.6563C12.7083 62.5417 11.5313 59.5938 11.5313 55.8125Z"/>
       <path id="DejaVuSans-341" transform="matrix(0.125 0 0 -0.125 7.79468 9.35547)" fill="#000000" d="M32.9063 64.3125L8 25.3906L32.9063 25.3906ZM30.3125 72.9063L42.7188 72.9063L42.7188 25.3906L53.125 25.3906L53.125 17.1875L42.7188 17.1875L42.7188 0L32.9063 0L32.9063 17.1875L0 17.1875L0 26.7031Z"/>
       <path id="DejaVuSans-307" transform="matrix(0.125 0 0 -0.125 15.9604 9.5332)" fill="#000000" d="M25.1875 67.8281C20.1146 67.8281 16.2969 65.3281 13.7344 60.3281C11.1823 55.3385 9.90625 47.8281 9.90625 37.7969C9.90625 27.8073 11.1823 20.3125 13.7344 15.3125C16.2969 10.3125 20.1146 7.8125 25.1875 7.8125C30.3021 7.8125 34.1354 10.3125 36.6875 15.3125C39.25 20.3125 40.5313 27.8073 40.5313 37.7969C40.5313 47.8281 39.25 55.3385 36.6875 60.3281C34.1354 65.3281 30.3021 67.8281 25.1875 67.8281ZM25.1875 75.6406C33.3646 75.6406 39.6094 72.4063 43.9219 65.9375C48.2344 59.4792 50.3906 50.099 50.3906 37.7969C50.3906 25.526 48.2344 16.1563 43.9219 9.6875C39.6094 3.22917 33.3646 0 25.1875 0C17.0208 0 10.7813 3.22917 6.46875 9.6875C2.15625 16.1563 0 25.526 0 37.7969C0 50.099 2.15625 59.4792 6.46875 65.9375C10.7813 72.4063 17.0208 75.6406 25.1875 75.6406Z"/>
       <path id="DejaVuSans-308" transform="matrix(0.125 0 0 -0.125 23.9133 9.5332)" fill="#000000" d="M25.1875 67.8281C20.1146 67.8281 16.2969 65.3281 13.7344 60.3281C11.1823 55.3385 9.90625 47.8281 9.90625 37.7969C9.90625 27.8073 11.1823 20.3125 13.7344 15.3125C16.2969 10.3125 20.1146 7.8125 25.1875 7.8125C30.3021 7.8125 34.1354 10.3125 36.6875 15.3125C39.25 20.3125 40.5313 27.8073 40.5313 37.7969C40.5313 47.8281 39.25 55.3385 36.6875 60.3281C34.1354 65.3281 30.3021 67.8281 25.1875 67.8281ZM25.1875 75.6406C33.3646 75.6406 39.6094 72.4063 43.9219 65.9375C48.2344 59.4792 50.3906 50.099 50.3906 37.7969C50.3906 25.526 48.2344 16.1563 43.9219 9.6875C39.6094 3.22917 33.3646 0 25.1875 0C17.0208 0 10.7813 3.22917 6.46875 9.6875C2.15625 16.1563 0 25.526 0 37.7969C0 50.099 2.15625 59.4792 6.46875 65.9375C10.7813 72.4063 17.0208 75.6406 25.1875 75.6406Z"/>
      </g>
     </g>
    </g>
    <g id="ytick_2" transform="translate(17.9453, 195.097)" fill="none">
     <g id="line2d_9" transform="translate(34.418, 3.60644)" fill="none">
      <g id="group17" transform="" fill="none">
       <path id="md5204c59f41" transform="matrix(1.25 0 0 1.25 1 1)" fill="#000000" stroke="#000000" stroke-width="0.80000000000" stroke-linecap="butt" stroke-linejoin="round" d="M3.5 0L0 0"/>
      </g>
     </g>
     <g id="text_10" transform="" fill="none">
      <g id="group18" transform="" fill="none">
       <path id="DejaVuSans-381" transform="matrix(0.125 0 0 -0.125 0.078125 9.5332)" fill="#000000" d="M25 36.0469C20.3125 36.0469 16.625 34.7917 13.9375 32.2813C11.2604 29.7708 9.92188 26.3229 9.92188 21.9375C9.92188 17.5417 11.2604 14.0885 13.9375 11.5781C16.625 9.06771 20.3125 7.8125 25 7.8125C29.6875 7.8125 33.3802 9.07292 36.0781 11.5938C38.7865 14.125 40.1406 17.5729 40.1406 21.9375C40.1406 26.3229 38.7969 29.7708 36.1094 32.2813C33.4323 34.7917 29.7292 36.0469 25 36.0469ZM15.1406 40.2344C10.9115 41.276 7.61458 43.2448 5.25 46.1406C2.89583 49.0469 1.71875 52.5833 1.71875 56.75C1.71875 62.5729 3.79167 67.1771 7.9375 70.5625C12.0938 73.9479 17.7813 75.6406 25 75.6406C32.2604 75.6406 37.9583 73.9479 42.0938 70.5625C46.2292 67.1771 48.2969 62.5729 48.2969 56.75C48.2969 52.5833 47.1146 49.0469 44.75 46.1406C42.3958 43.2448 39.1198 41.276 34.9219 40.2344C39.6719 39.1302 43.3698 36.9635 46.0156 33.7344C48.6719 30.5156 50 26.5833 50 21.9375C50 14.8646 47.8438 9.4375 43.5313 5.65625C39.2188 1.88542 33.0417 0 25 0C16.9688 0 10.7917 1.88542 6.46875 5.65625C2.15625 9.4375 0 14.8646 0 21.9375C0 26.5833 1.33333 30.5156 4 33.7344C6.67708 36.9635 10.3906 39.1302 15.1406 40.2344ZM11.5313 55.8125C11.5313 52.0417 12.7083 49.099 15.0625 46.9844C17.4271 44.8698 20.7396 43.8125 25 43.8125C29.2396 43.8125 32.5521 44.8698 34.9375 46.9844C37.3333 49.099 38.5313 52.0417 38.5313 55.8125C38.5313 59.5938 37.3333 62.5417 34.9375 64.6563C32.5521 66.7708 29.2396 67.8281 25 67.8281C20.7396 67.8281 17.4271 66.7708 15.0625 64.6563C12.7083 62.5417 11.5313 59.5938 11.5313 55.8125Z"/>
       <path id="DejaVuSans-342" transform="matrix(0.125 0 0 -0.125 7.79468 9.35547)" fill="#000000" d="M32.9063 64.3125L8 25.3906L32.9063 25.3906ZM30.3125 72.9063L42.7188 72.9063L42.7188 25.3906L53.125 25.3906L53.125 17.1875L42.7188 17.1875L42.7188 0L32.9063 0L32.9063 17.1875L0 17.1875L0 26.7031Z"/>
       <path id="DejaVuSans-351" transform="matrix(0.125 0 0 -0.125 16.1011 9.5332)" fill="#000000" d="M3.07813 74.3281L41.7969 74.3281L41.7969 66.0156L12.1094 66.0156L12.1094 48.1563C13.5365 48.6458 14.9635 49.0104 16.3906 49.25C17.8281 49.4896 19.2656 49.6094 20.7031 49.6094C28.8385 49.6094 35.2813 47.3802 40.0313 42.9219C44.7917 38.4635 47.1719 32.4271 47.1719 24.8125C47.1719 16.9688 44.7292 10.8698 39.8437 6.51562C34.9583 2.17188 28.0729 0 19.1875 0C16.125 0 13.0052 0.260417 9.82812 0.78125C6.66146 1.30208 3.38542 2.08333 0 3.125L0 13.0469C2.92708 11.4531 5.95312 10.2656 9.07813 9.48438C12.2031 8.70313 15.5052 8.3125 18.9844 8.3125C24.6198 8.3125 29.0781 9.79167 32.3594 12.75C35.651 15.7083 37.2969 19.7292 37.2969 24.8125C37.2969 29.8854 35.651 33.901 32.3594 36.8594C29.0781 39.8281 24.6198 41.3125 18.9844 41.3125C16.349 41.3125 13.7188 41.0208 11.0938 40.4375C8.47917 39.8542 5.80729 38.9427 3.07813 37.7031Z"/>
       <path id="DejaVuSans-309" transform="matrix(0.125 0 0 -0.125 23.9133 9.5332)" fill="#000000" d="M25.1875 67.8281C20.1146 67.8281 16.2969 65.3281 13.7344 60.3281C11.1823 55.3385 9.90625 47.8281 9.90625 37.7969C9.90625 27.8073 11.1823 20.3125 13.7344 15.3125C16.2969 10.3125 20.1146 7.8125 25.1875 7.8125C30.3021 7.8125 34.1354 10.3125 36.6875 15.3125C39.25 20.3125 40.5313 27.8073 40.5313 37.7969C40.5313 47.8281 39.25 55.3385 36.6875 60.3281C34.1354 65.3281 30.3021 67.8281 25.1875 67.8281ZM25.1875 75.6406C33.3646 75.6406 39.6094 72.4063 43.9219 65.9375C48.2344 59.4792 50.3906 50.099 50.3906 37.7969C50.3906 25.526 48.2344 16.1563 43.9219 9.6875C39.6094 3.22917 33.3646 0 25.1875 0C17.0208 0 10.7813 3.22917 6.46875 9.6875C2.15625 16.1563 0 25.526 0 37.7969C0 50.099 2.15625 59.4792 6.46875 65.9375C10.7813 72.4063 17.0208 75.6406 25.1875 75.6406Z"/>
      </g>
     </g>
    </g>
    <g id="ytick_3" transform="translate(17.9453, 146.323)" fill="none">
     <g id="line2d_10" transform="translate(34.418, 3.60645)" fill="none">
      <g id="group19" transform="" fill="none">
       <path id="md5204c59f42" transform="matrix(1.25 0 0 1.25 1 1)" fill="#000000" stroke="#000000" stroke-width="0.80000000000" stroke-linecap="butt" stroke-linejoin="round" d="M3.5 0L0 0"/>
      </g>
     </g>
     <g id="text_11" transform="" fill="none">
      <g id="group20" transform="" fill="none">
       <path id="DejaVuSans-382" transform="matrix(0.125 0 0 -0.125 0.078125 9.5332)" fill="#000000" d="M25 36.0469C20.3125 36.0469 16.625 34.7917 13.9375 32.2813C11.2604 29.7708 9.92188 26.3229 9.92188 21.9375C9.92188 17.5417 11.2604 14.0885 13.9375 11.5781C16.625 9.06771 20.3125 7.8125 25 7.8125C29.6875 7.8125 33.3802 9.07292 36.0781 11.5938C38.7865 14.125 40.1406 17.5729 40.1406 21.9375C40.1406 26.3229 38.7969 29.7708 36.1094 32.2813C33.4323 34.7917 29.7292 36.0469 25 36.0469ZM15.1406 40.2344C10.9115 41.276 7.61458 43.2448 5.25 46.1406C2.89583 49.0469 1.71875 52.5833 1.71875 56.75C1.71875 62.5729 3.79167 67.1771 7.9375 70.5625C12.0938 73.9479 17.7813 75.6406 25 75.6406C32.2604 75.6406 37.9583 73.9479 42.0938 70.5625C46.2292 67.1771 48.2969 62.5729 48.2969 56.75C48.2969 52.5833 47.1146 49.0469 44.75 46.1406C42.3958 43.2448 39.1198 41.276 34.9219 40.2344C39.6719 39.1302 43.3698 36.9635 46.0156 33.7344C48.6719 30.5156 50 26.5833 50 21.9375C50 14.8646 47.8438 9.4375 43.5313 5.65625C39.2188 1.88542 33.0417 0 25 0C16.9688 0 10.7917 1.88542 6.46875 5.65625C2.15625 9.4375 0 14.8646 0 21.9375C0 26.5833 1.33333 30.5156 4 33.7344C6.67708 36.9635 10.3906 39.1302 15.1406 40.2344ZM11.5313 55.8125C11.5313 52.0417 12.7083 49.099 15.0625 46.9844C17.4271 44.8698 20.7396 43.8125 25 43.8125C29.2396 43.8125 32.5521 44.8698 34.9375 46.9844C37.3333 49.099 38.5313 52.0417 38.5313 55.8125C38.5313 59.5938 37.3333 62.5417 34.9375 64.6563C32.5521 66.7708 29.2396 67.8281 25 67.8281C20.7396 67.8281 17.4271 66.7708 15.0625 64.6563C12.7083 62.5417 11.5313 59.5938 11.5313 55.8125Z"/>
       <path id="DejaVuSans-352" transform="matrix(0.125 0 0 -0.125 8.14819 9.5332)" fill="#000000" d="M3.07813 74.3281L41.7969 74.3281L41.7969 66.0156L12.1094 66.0156L12.1094 48.1563C13.5365 48.6458 14.9635 49.0104 16.3906 49.25C17.8281 49.4896 19.2656 49.6094 20.7031 49.6094C28.8385 49.6094 35.2813 47.3802 40.0313 42.9219C44.7917 38.4635 47.1719 32.4271 47.1719 24.8125C47.1719 16.9688 44.7292 10.8698 39.8437 6.51562C34.9583 2.17188 28.0729 0 19.1875 0C16.125 0 13.0052 0.260417 9.82812 0.78125C6.66146 1.30208 3.38542 2.08333 0 3.125L0 13.0469C2.92708 11.4531 5.95312 10.2656 9.07813 9.48438C12.2031 8.70313 15.5052 8.3125 18.9844 8.3125C24.6198 8.3125 29.0781 9.79167 32.3594 12.75C35.651 15.7083 37.2969 19.7292 37.2969 24.8125C37.2969 29.8854 35.651 33.901 32.3594 36.8594C29.0781 39.8281 24.6198 41.3125 18.9844 41.3125C16.349 41.3125 13.7188 41.0208 11.0938 40.4375C8.47917 39.8542 5.80729 38.9427 3.07813 37.7031Z"/>
       <path id="DejaVuSans-3010" transform="matrix(0.125 0 0 -0.125 15.9604 9.5332)" fill="#000000" d="M25.1875 67.8281C20.1146 67.8281 16.2969 65.3281 13.7344 60.3281C11.1823 55.3385 9.90625 47.8281 9.90625 37.7969C9.90625 27.8073 11.1823 20.3125 13.7344 15.3125C16.2969 10.3125 20.1146 7.8125 25.1875 7.8125C30.3021 7.8125 34.1354 10.3125 36.6875 15.3125C39.25 20.3125 40.5313 27.8073 40.5313 37.7969C40.5313 47.8281 39.25 55.3385 36.6875 60.3281C34.1354 65.3281 30.3021 67.8281 25.1875 67.8281ZM25.1875 75.6406C33.3646 75.6406 39.6094 72.4063 43.9219 65.9375C48.2344 59.4792 50.3906 50.099 50.3906 37.7969C50.3906 25.526 48.2344 16.1563 43.9219 9.6875C39.6094 3.22917 33.3646 0 25.1875 0C17.0208 0 10.7813 3.22917 6.46875 9.6875C2.15625 16.1563 0 25.526 0 37.7969C0 50.099 2.15625 59.4792 6.46875 65.9375C10.7813 72.4063 17.0208 75.6406 25.1875 75.6406Z"/>
       <path id="DejaVuSans-3011" transform="matrix(0.125 0 0 -0.125 23.9133 9.5332)" fill="#000000" d="M25.1875 67.8281C20.1146 67.8281 16.2969 65.3281 13.7344 60.3281C11.1823 55.3385 9.90625 47.8281 9.90625 37.7969C9.90625 27.8073 11.1823 20.3125 13.7344 15.3125C16.2969 10.3125 20.1146 7.8125 25.1875 7.8125C30.3021 7.8125 34.1354 10.3125 36.6875 15.3125C39.25 20.3125 40.5313 27.8073 40.5313 37.7969C40.5313 47.8281 39.25 55.3385 36.6875 60.3281C34.1354 65.3281 30.3021 67.8281 25.1875 67.8281ZM25.1875 75.6406C33.3646 75.6406 39.6094 72.4063 43.9219 65.9375C48.2344 59.4792 50.3906 50.099 50.3906 37.7969C50.3906 25.526 48.2344 16.1563 43.9219 9.6875C39.6094 3.22917 33.3646 0 25.1875 0C17.0208 0 10.7813 3.22917 6.46875 9.6875C2.15625 16.1563 0 25.526 0 37.7969C0 50.099 2.15625 59.4792 6.46875 65.9375C10.7813 72.4063 17.0208 75.6406 25.1875 75.6406Z"/>
      </g>
     </g>
    </g>
    <g id="ytick_4" transform="translate(17.9453, 97.5484)" fill="none">
     <g id="line2d_11" transform="translate(34.418, 3.60645)" fill="none">
      <g id="group21" transform="" fill="none">
       <path id="md5204c59f43" transform="matrix(1.25 0 0 1.25 1 1)" fill="#000000" stroke="#000000" stroke-width="0.80000000000" stroke-linecap="butt" stroke-linejoin="round" d="M3.5 0L0 0"/>
      </g>
     </g>
     <g id="text_12" transform="" fill="none">
      <g id="group22" transform="" fill="none">
       <path id="DejaVuSans-383" transform="matrix(0.125 0 0 -0.125 0.078125 9.5332)" fill="#000000" d="M25 36.0469C20.3125 36.0469 16.625 34.7917 13.9375 32.2813C11.2604 29.7708 9.92188 26.3229 9.92188 21.9375C9.92188 17.5417 11.2604 14.0885 13.9375 11.5781C16.625 9.06771 20.3125 7.8125 25 7.8125C29.6875 7.8125 33.3802 9.07292 36.0781 11.5938C38.7865 14.125 40.1406 17.5729 40.1406 21.9375C40.1406 26.3229 38.7969 29.7708 36.1094 32.2813C33.4323 34.7917 29.7292 36.0469 25 36.0469ZM15.1406 40.2344C10.9115 41.276 7.61458 43.2448 5.25 46.1406C2.89583 49.0469 1.71875 52.5833 1.71875 56.75C1.71875 62.5729 3.79167 67.1771 7.9375 70.5625C12.0938 73.9479 17.7813 75.6406 25 75.6406C32.2604 75.6406 37.9583 73.9479 42.0938 70.5625C46.2292 67.1771 48.2969 62.5729 48.2969 56.75C48.2969 52.5833 47.1146 49.0469 44.75 46.1406C42.3958 43.2448 39.1198 41.276 34.9219 40.2344C39.6719 39.1302 43.3698 36.9635 46.0156 33.7344C48.6719 30.5156 50 26.5833 50 21.9375C50 14.8646 47.8438 9.4375 43.5313 5.65625C39.2188 1.88542 33.0417 0 25 0C16.9688 0 10.7917 1.88542 6.46875 5.65625C2.15625 9.4375 0 14.8646 0 21.9375C0 26.5833 1.33333 30.5156 4 33.7344C6.67708 36.9635 10.3906 39.1302 15.1406 40.2344ZM11.5313 55.8125C11.5313 52.0417 12.7083 49.099 15.0625 46.9844C17.4271 44.8698 20.7396 43.8125 25 43.8125C29.2396 43.8125 32.5521 44.8698 34.9375 46.9844C37.3333 49.099 38.5313 52.0417 38.5313 55.8125C38.5313 59.5938 37.3333 62.5417 34.9375 64.6563C32.5521 66.7708 29.2396 67.8281 25 67.8281C20.7396 67.8281 17.4271 66.7708 15.0625 64.6563C12.7083 62.5417 11.5313 59.5938 11.5313 55.8125Z"/>
       <path id="DejaVuSans-353" transform="matrix(0.125 0 0 -0.125 8.14819 9.5332)" fill="#000000" d="M3.07813 74.3281L41.7969 74.3281L41.7969 66.0156L12.1094 66.0156L12.1094 48.1563C13.5365 48.6458 14.9635 49.0104 16.3906 49.25C17.8281 49.4896 19.2656 49.6094 20.7031 49.6094C28.8385 49.6094 35.2813 47.3802 40.0313 42.9219C44.7917 38.4635 47.1719 32.4271 47.1719 24.8125C47.1719 16.9688 44.7292 10.8698 39.8437 6.51562C34.9583 2.17188 28.0729 0 19.1875 0C16.125 0 13.0052 0.260417 9.82812 0.78125C6.66146 1.30208 3.38542 2.08333 0 3.125L0 13.0469C2.92708 11.4531 5.95312 10.2656 9.07813 9.48438C12.2031 8.70313 15.5052 8.3125 18.9844 8.3125C24.6198 8.3125 29.0781 9.79167 32.3594 12.75C35.651 15.7083 37.2969 19.7292 37.2969 24.8125C37.2969 29.8854 35.651 33.901 32.3594 36.8594C29.0781 39.8281 24.6198 41.3125 18.9844 41.3125C16.349 41.3125 13.7188 41.0208 11.0938 40.4375C8.47917 39.8542 5.80729 38.9427 3.07813 37.7031Z"/>
       <path id="DejaVuSans-354" transform="matrix(0.125 0 0 -0.125 16.1011 9.5332)" fill="#000000" d="M3.07813 74.3281L41.7969 74.3281L41.7969 66.0156L12.1094 66.0156L12.1094 48.1563C13.5365 48.6458 14.9635 49.0104 16.3906 49.25C17.8281 49.4896 19.2656 49.6094 20.7031 49.6094C28.8385 49.6094 35.2813 47.3802 40.0313 42.9219C44.7917 38.4635 47.1719 32.4271 47.1719 24.8125C47.1719 16.9688 44.7292 10.8698 39.8437 6.51562C34.9583 2.17188 28.0729 0 19.1875 0C16.125 0 13.0052 0.260417 9.82812 0.78125C6.66146 1.30208 3.38542 2.08333 0 3.125L0 13.0469C2.92708 11.4531 5.95312 10.2656 9.07813 9.48438C12.2031 8.70313 15.5052 8.3125 18.9844 8.3125C24.6198 8.3125 29.0781 9.79167 32.3594 12.75C35.651 15.7083 37.2969 19.7292 37.2969 24.8125C37.2969 29.8854 35.651 33.901 32.3594 36.8594C29.0781 39.8281 24.6198 41.3125 18.9844 41.3125C16.349 41.3125 13.7188 41.0208 11.0938 40.4375C8.47917 39.8542 5.80729 38.9427 3.07813 37.7031Z"/>
       <path id="DejaVuSans-3012" transform="matrix(0.125 0 0 -0.125 23.9133 9.5332)" fill="#000000" d="M25.1875 67.8281C20.1146 67.8281 16.2969 65.3281 13.7344 60.3281C11.1823 55.3385 9.90625 47.8281 9.90625 37.7969C9.90625 27.8073 11.1823 20.3125 13.7344 15.3125C16.2969 10.3125 20.1146 7.8125 25.1875 7.8125C30.3021 7.8125 34.1354 10.3125 36.6875 15.3125C39.25 20.3125 40.5313 27.8073 40.5313 37.7969C40.5313 47.8281 39.25 55.3385 36.6875 60.3281C34.1354 65.3281 30.3021 67.8281 25.1875 67.8281ZM25.1875 75.6406C33.3646 75.6406 39.6094 72.4063 43.9219 65.9375C48.2344 59.4792 50.3906 50.099 50.3906 37.7969C50.3906 25.526 48.2344 16.1563 43.9219 9.6875C39.6094 3.22917 33.3646 0 25.1875 0C17.0208 0 10.7813 3.22917 6.46875 9.6875C2.15625 16.1563 0 25.526 0 37.7969C0 50.099 2.15625 59.4792 6.46875 65.9375C10.7813 72.4063 17.0208 75.6406 25.1875 75.6406Z"/>
      </g>
     </g>
    </g>
    <g id="ytick_5" transform="translate(17.9453, 48.7742)" fill="none">
     <g id="line2d_12" transform="translate(34.418, 3.60645)" fill="none">
      <g id="group23" transform="" fill="none">
       <path id="md5204c59f44" transform="matrix(1.25 0 0 1.25 1 1)" fill="#000000" stroke="#000000" stroke-width="0.80000000000" stroke-linecap="butt" stroke-linejoin="round" d="M3.5 0L0 0"/>
      </g>
     </g>
     <g id="text_13" transform="" fill="none">
      <g id="group24" transform="" fill="none">
       <path id="DejaVuSans-384" transform="matrix(0.125 0 0 -0.125 0.078125 9.5332)" fill="#000000" d="M25 36.0469C20.3125 36.0469 16.625 34.7917 13.9375 32.2813C11.2604 29.7708 9.92188 26.3229 9.92188 21.9375C9.92188 17.5417 11.2604 14.0885 13.9375 11.5781C16.625 9.06771 20.3125 7.8125 25 7.8125C29.6875 7.8125 33.3802 9.07292 36.0781 11.5938C38.7865 14.125 40.1406 17.5729 40.1406 21.9375C40.1406 26.3229 38.7969 29.7708 36.1094 32.2813C33.4323 34.7917 29.7292 36.0469 25 36.0469ZM15.1406 40.2344C10.9115 41.276 7.61458 43.2448 5.25 46.1406C2.89583 49.0469 1.71875 52.5833 1.71875 56.75C1.71875 62.5729 3.79167 67.1771 7.9375 70.5625C12.0938 73.9479 17.7813 75.6406 25 75.6406C32.2604 75.6406 37.9583 73.9479 42.0938 70.5625C46.2292 67.1771 48.2969 62.5729 48.2969 56.75C48.2969 52.5833 47.1146 49.0469 44.75 46.1406C42.3958 43.2448 39.1198 41.276 34.9219 40.2344C39.6719 39.1302 43.3698 36.9635 46.0156 33.7344C48.6719 30.5156 50 26.5833 50 21.9375C50 14.8646 47.8438 9.4375 43.5313 5.65625C39.2188 1.88542 33.0417 0 25 0C16.9688 0 10.7917 1.88542 6.46875 5.65625C2.15625 9.4375 0 14.8646 0 21.9375C0 26.5833 1.33333 30.5156 4 33.7344C6.67708 36.9635 10.3906 39.1302 15.1406 40.2344ZM11.5313 55.8125C11.5313 52.0417 12.7083 49.099 15.0625 46.9844C17.4271 44.8698 20.7396 43.8125 25 43.8125C29.2396 43.8125 32.5521 44.8698 34.9375 46.9844C37.3333 49.099 38.5313 52.0417 38.5313 55.8125C38.5313 59.5938 37.3333 62.5417 34.9375 64.6563C32.5521 66.7708 29.2396 67.8281 25 67.8281C20.7396 67.8281 17.4271 66.7708 15.0625 64.6563C12.7083 62.5417 11.5313 59.5938 11.5313 55.8125Z"/>
       <path id="DejaVuSans-361" transform="matrix(0.125 0 0 -0.125 8.0564 9.5332)" fill="#000000" d="M26.0313 41.7969C21.6042 41.7969 18.0938 40.2813 15.5 37.25C12.9167 34.2292 11.625 30.0833 11.625 24.8125C11.625 19.5729 12.9167 15.4271 15.5 12.375C18.0938 9.33333 21.6042 7.8125 26.0313 7.8125C30.4583 7.8125 33.9635 9.33333 36.5469 12.375C39.1302 15.4271 40.4219 19.5729 40.4219 24.8125C40.4219 30.0833 39.1302 34.2292 36.5469 37.25C33.9635 40.2813 30.4583 41.7969 26.0313 41.7969ZM45.6094 72.7188L45.6094 63.7344C43.1302 64.901 40.6302 65.7917 38.1094 66.4063C35.5885 67.0313 33.0885 67.3438 30.6094 67.3438C24.099 67.3438 19.125 65.1458 15.6875 60.75C12.2604 56.3542 10.3021 49.7135 9.8125 40.8281C11.7292 43.6615 14.1354 45.8333 17.0312 47.3438C19.9375 48.8542 23.1302 49.6094 26.6094 49.6094C33.9323 49.6094 39.7188 47.3854 43.9688 42.9375C48.2187 38.5 50.3438 32.4583 50.3438 24.8125C50.3438 17.3229 48.1302 11.3125 43.7031 6.78125C39.276 2.26042 33.3854 0 26.0313 0C17.5938 0 11.1458 3.22917 6.6875 9.6875C2.22917 16.1563 0 25.526 0 37.7969C0 49.3177 2.73438 58.5052 8.20312 65.3594C13.6719 72.2135 21.0104 75.6406 30.2187 75.6406C32.6979 75.6406 35.1979 75.3958 37.7188 74.9063C40.2396 74.4167 42.8698 73.6875 45.6094 72.7188Z"/>
       <path id="DejaVuSans-3013" transform="matrix(0.125 0 0 -0.125 15.9604 9.5332)" fill="#000000" d="M25.1875 67.8281C20.1146 67.8281 16.2969 65.3281 13.7344 60.3281C11.1823 55.3385 9.90625 47.8281 9.90625 37.7969C9.90625 27.8073 11.1823 20.3125 13.7344 15.3125C16.2969 10.3125 20.1146 7.8125 25.1875 7.8125C30.3021 7.8125 34.1354 10.3125 36.6875 15.3125C39.25 20.3125 40.5313 27.8073 40.5313 37.7969C40.5313 47.8281 39.25 55.3385 36.6875 60.3281C34.1354 65.3281 30.3021 67.8281 25.1875 67.8281ZM25.1875 75.6406C33.3646 75.6406 39.6094 72.4063 43.9219 65.9375C48.2344 59.4792 50.3906 50.099 50.3906 37.7969C50.3906 25.526 48.2344 16.1563 43.9219 9.6875C39.6094 3.22917 33.3646 0 25.1875 0C17.0208 0 10.7813 3.22917 6.46875 9.6875C2.15625 16.1563 0 25.526 0 37.7969C0 50.099 2.15625 59.4792 6.46875 65.9375C10.7813 72.4063 17.0208 75.6406 25.1875 75.6406Z"/>
       <path id="DejaVuSans-3014" transform="matrix(0.125 0 0 -0.125 23.9133 9.5332)" fill="#000000" d="M25.1875 67.8281C20.1146 67.8281 16.2969 65.3281 13.7344 60.3281C11.1823 55.3385 9.90625 47.8281 9.90625 37.7969C9.90625 27.8073 11.1823 20.3125 13.7344 15.3125C16.2969 10.3125 20.1146 7.8125 25.1875 7.8125C30.3021 7.8125 34.1354 10.3125 36.6875 15.3125C39.25 20.3125 40.5313 27.8073 40.5313 37.7969C40.5313 47.8281 39.25 55.3385 36.6875 60.3281C34.1354 65.3281 30.3021 67.8281 25.1875 67.8281ZM25.1875 75.6406C33.3646 75.6406 39.6094 72.4063 43.9219 65.9375C48.2344 59.4792 50.3906 50.099 50.3906 37.7969C50.3906 25.526 48.2344 16.1563 43.9219 9.6875C39.6094 3.22917 33.3646 0 25.1875 0C17.0208 0 10.7813 3.22917 6.46875 9.6875C2.15625 16.1563 0 25.526 0 37.7969C0 50.099 2.15625 59.4792 6.46875 65.9375C10.7813 72.4063 17.0208 75.6406 25.1875 75.6406Z"/>
      </g>
     </g>
    </g>
    <g id="ytick_6" transform="translate(17.9453, 0)" fill="none">
     <g id="line2d_13" transform="translate(34.418, 3.60644)" fill="none">
      <g id="group25" transform="" fill="none">
       <path id="md5204c59f45" transform="matrix(1.25 0 0 1.25 1 1)" fill="#000000" stroke="#000000" stroke-width="0.80000000000" stroke-linecap="butt" stroke-linejoin="round" d="M3.5 0L0 0"/>
      </g>
     </g>
     <g id="text_14" transform="" fill="none">
      <g id="group26" transform="" fill="none">
       <path id="DejaVuSans-385" transform="matrix(0.125 0 0 -0.125 0.078125 9.5332)" fill="#000000" d="M25 36.0469C20.3125 36.0469 16.625 34.7917 13.9375 32.2813C11.2604 29.7708 9.92188 26.3229 9.92188 21.9375C9.92188 17.5417 11.2604 14.0885 13.9375 11.5781C16.625 9.06771 20.3125 7.8125 25 7.8125C29.6875 7.8125 33.3802 9.07292 36.0781 11.5938C38.7865 14.125 40.1406 17.5729 40.1406 21.9375C40.1406 26.3229 38.7969 29.7708 36.1094 32.2813C33.4323 34.7917 29.7292 36.0469 25 36.0469ZM15.1406 40.2344C10.9115 41.276 7.61458 43.2448 5.25 46.1406C2.89583 49.0469 1.71875 52.5833 1.71875 56.75C1.71875 62.5729 3.79167 67.1771 7.9375 70.5625C12.0938 73.9479 17.7813 75.6406 25 75.6406C32.2604 75.6406 37.9583 73.9479 42.0938 70.5625C46.2292 67.1771 48.2969 62.5729 48.2969 56.75C48.2969 52.5833 47.1146 49.0469 44.75 46.1406C42.3958 43.2448 39.1198 41.276 34.9219 40.2344C39.6719 39.1302 43.3698 36.9635 46.0156 33.7344C48.6719 30.5156 50 26.5833 50 21.9375C50 14.8646 47.8438 9.4375 43.5313 5.65625C39.2188 1.88542 33.0417 0 25 0C16.9688 0 10.7917 1.88542 6.46875 5.65625C2.15625 9.4375 0 14.8646 0 21.9375C0 26.5833 1.33333 30.5156 4 33.7344C6.67708 36.9635 10.3906 39.1302 15.1406 40.2344ZM11.5313 55.8125C11.5313 52.0417 12.7083 49.099 15.0625 46.9844C17.4271 44.8698 20.7396 43.8125 25 43.8125C29.2396 43.8125 32.5521 44.8698 34.9375 46.9844C37.3333 49.099 38.5313 52.0417 38.5313 55.8125C38.5313 59.5938 37.3333 62.5417 34.9375 64.6563C32.5521 66.7708 29.2396 67.8281 25 67.8281C20.7396 67.8281 17.4271 66.7708 15.0625 64.6563C12.7083 62.5417 11.5313 59.5938 11.5313 55.8125Z"/>
       <path id="DejaVuSans-362" transform="matrix(0.125 0 0 -0.125 8.0564 9.5332)" fill="#000000" d="M26.0313 41.7969C21.6042 41.7969 18.0938 40.2813 15.5 37.25C12.9167 34.2292 11.625 30.0833 11.625 24.8125C11.625 19.5729 12.9167 15.4271 15.5 12.375C18.0938 9.33333 21.6042 7.8125 26.0313 7.8125C30.4583 7.8125 33.9635 9.33333 36.5469 12.375C39.1302 15.4271 40.4219 19.5729 40.4219 24.8125C40.4219 30.0833 39.1302 34.2292 36.5469 37.25C33.9635 40.2813 30.4583 41.7969 26.0313 41.7969ZM45.6094 72.7188L45.6094 63.7344C43.1302 64.901 40.6302 65.7917 38.1094 66.4063C35.5885 67.0313 33.0885 67.3438 30.6094 67.3438C24.099 67.3438 19.125 65.1458 15.6875 60.75C12.2604 56.3542 10.3021 49.7135 9.8125 40.8281C11.7292 43.6615 14.1354 45.8333 17.0312 47.3438C19.9375 48.8542 23.1302 49.6094 26.6094 49.6094C33.9323 49.6094 39.7188 47.3854 43.9688 42.9375C48.2187 38.5 50.3438 32.4583 50.3438 24.8125C50.3438 17.3229 48.1302 11.3125 43.7031 6.78125C39.276 2.26042 33.3854 0 26.0313 0C17.5938 0 11.1458 3.22917 6.6875 9.6875C2.22917 16.1563 0 25.526 0 37.7969C0 49.3177 2.73438 58.5052 8.20312 65.3594C13.6719 72.2135 21.0104 75.6406 30.2187 75.6406C32.6979 75.6406 35.1979 75.3958 37.7188 74.9063C40.2396 74.4167 42.8698 73.6875 45.6094 72.7188Z"/>
       <path id="DejaVuSans-355" transform="matrix(0.125 0 0 -0.125 16.1011 9.5332)" fill="#000000" d="M3.07813 74.3281L41.7969 74.3281L41.7969 66.0156L12.1094 66.0156L12.1094 48.1563C13.5365 48.6458 14.9635 49.0104 16.3906 49.25C17.8281 49.4896 19.2656 49.6094 20.7031 49.6094C28.8385 49.6094 35.2813 47.3802 40.0313 42.9219C44.7917 38.4635 47.1719 32.4271 47.1719 24.8125C47.1719 16.9688 44.7292 10.8698 39.8437 6.51562C34.9583 2.17188 28.0729 0 19.1875 0C16.125 0 13.0052 0.260417 9.82812 0.78125C6.66146 1.30208 3.38542 2.08333 0 3.125L0 13.0469C2.92708 11.4531 5.95312 10.2656 9.07813 9.48438C12.2031 8.70313 15.5052 8.3125 18.9844 8.3125C24.6198 8.3125 29.0781 9.79167 32.3594 12.75C35.651 15.7083 37.2969 19.7292 37.2969 24.8125C37.2969 29.8854 35.651 33.901 32.3594 36.8594C29.0781 39.8281 24.6198 41.3125 18.9844 41.3125C16.349 41.3125 13.7188 41.0208 11.0938 40.4375C8.47917 39.8542 5.80729 38.9427 3.07813 37.7031Z"/>
       <path id="DejaVuSans-3015" transform="matrix(0.125 0 0 -0.125 23.9133 9.5332)" fill="#000000" d="M25.1875 67.8281C20.1146 67.8281 16.2969 65.3281 13.7344 60.3281C11.1823 55.3385 9.90625 47.8281 9.90625 37.7969C9.90625 27.8073 11.1823 20.3125 13.7344 15.3125C16.2969 10.3125 20.1146 7.8125 25.1875 7.8125C30.3021 7.8125 34.1354 10.3125 36.6875 15.3125C39.25 20.3125 40.5313 27.8073 40.5313 37.7969C40.5313 47.8281 39.25 55.3385 36.6875 60.3281C34.1354 65.3281 30.3021 67.8281 25.1875 67.8281ZM25.1875 75.6406C33.3646 75.6406 39.6094 72.4063 43.9219 65.9375C48.2344 59.4792 50.3906 50.099 50.3906 37.7969C50.3906 25.526 48.2344 16.1563 43.9219 9.6875C39.6094 3.22917 33.3646 0 25.1875 0C17.0208 0 10.7813 3.22917 6.46875 9.6875C2.15625 16.1563 0 25.526 0 37.7969C0 50.099 2.15625 59.4792 6.46875 65.9375C10.7813 72.4063 17.0208 75.6406 25.1875 75.6406Z"/>
      </g>
     </g>
    </g>
    <g id="text_15" transform="translate(2.22045e-15, 74.1782)" fill="none">
     <g id="group27" transform="" fill="none">
      <path id="DejaVuSans-43" transform="matrix(0 -0.125 -0.125 0 9.75391 105.023)" fill="#000000" d="M58.7969 68.7031L58.7969 58.3125C55.474 61.4063 51.9323 63.7135 48.1719 65.2344C44.4115 66.7656 40.4167 67.5313 36.1875 67.5313C27.8542 67.5313 21.474 64.9844 17.0469 59.8906C12.6198 54.7969 10.4063 47.4323 10.4063 37.7969C10.4063 28.1927 12.6198 20.8438 17.0469 15.75C21.474 10.6563 27.8542 8.10938 36.1875 8.10938C40.4167 8.10938 44.4115 8.875 48.1719 10.4063C51.9323 11.9375 55.474 14.25 58.7969 17.3438L58.7969 7.03125C55.349 4.6875 51.6927 2.92708 47.8281 1.75C43.974 0.583333 39.901 0 35.6094 0C24.5677 0 15.8698 3.375 9.51563 10.125C3.17188 16.8854 0 26.1094 0 37.7969C0 49.5156 3.17188 58.75 9.51563 65.5C15.8698 72.2604 24.5677 75.6406 35.6094 75.6406C39.9635 75.6406 44.0677 75.0625 47.9219 73.9063C51.7865 72.75 55.4115 71.0156 58.7969 68.7031Z"/>
      <path id="DejaVuSans-6f" transform="matrix(0 -0.125 -0.125 0 9.75391 96.3066)" fill="#000000" d="M25.0938 49.8125C20.2813 49.8125 16.474 47.9323 13.6719 44.1719C10.8698 40.4115 9.46875 35.2604 9.46875 28.7188C9.46875 22.1771 10.8594 17.026 13.6406 13.2656C16.4323 9.50521 20.25 7.625 25.0938 7.625C29.8854 7.625 33.6771 9.51042 36.4688 13.2813C39.2708 17.0625 40.6719 22.2083 40.6719 28.7188C40.6719 35.1979 39.2708 40.3333 36.4688 44.125C33.6771 47.9167 29.8854 49.8125 25.0938 49.8125ZM25.0938 57.4219C32.9063 57.4219 39.0417 54.8802 43.5 49.7969C47.9688 44.724 50.2031 37.6979 50.2031 28.7188C50.2031 19.7708 47.9688 12.7448 43.5 7.64063C39.0417 2.54688 32.9063 0 25.0938 0C17.25 0 11.1042 2.54688 6.65625 7.64063C2.21875 12.7448 0 19.7708 0 28.7188C0 37.6979 2.21875 44.724 6.65625 49.7969C11.1042 54.8802 17.25 57.4219 25.0938 57.4219Z"/>
      <path id="DejaVuSans-6e" transform="matrix(0 -0.125 -0.125 0 9.57617 88.2136)" fill="#000000" d="M45.8125 33.0156L45.8125 0L36.8281 0L36.8281 32.7188C36.8281 37.8958 35.8177 41.7656 33.7969 44.3281C31.776 46.901 28.75 48.1875 24.7188 48.1875C19.8646 48.1875 16.0365 46.6406 13.2344 43.5469C10.4323 40.4635 9.03125 36.25 9.03125 30.9062L9.03125 0L0 0L0 54.6875L9.03125 54.6875L9.03125 46.1875C11.1875 49.4792 13.7188 51.9375 16.625 53.5625C19.5417 55.1875 22.9063 56 26.7187 56C33 56 37.75 54.0573 40.9688 50.1719C44.1979 46.2865 45.8125 40.5677 45.8125 33.0156Z"/>
      <path id="DejaVuSans-73" transform="matrix(0 -0.125 -0.125 0 9.75391 80.7483)" fill="#000000" d="M38.8594 54.5L38.8594 46C36.3281 47.3021 33.6927 48.276 30.9531 48.9219C28.224 49.5781 25.3906 49.9063 22.4531 49.9063C17.9948 49.9063 14.651 49.224 12.4219 47.8594C10.1927 46.4948 9.07813 44.4427 9.07813 41.7031C9.07813 39.6198 9.875 37.9844 11.4688 36.7969C13.0625 35.6094 16.2708 34.4792 21.0938 33.4063L24.1719 32.7188C30.5469 31.3542 35.0781 29.4271 37.7656 26.9375C40.4531 24.4479 41.7969 20.974 41.7969 16.5156C41.7969 11.4323 39.7865 7.40625 35.7656 4.4375C31.7448 1.47917 26.2188 0 19.1875 0C16.2604 0 13.2083 0.286458 10.0313 0.859375C6.85417 1.43229 3.51042 2.28646 0 3.42188L0 12.7031C3.32292 10.974 6.59375 9.67708 9.8125 8.8125C13.0313 7.95833 16.224 7.53125 19.3906 7.53125C23.6198 7.53125 26.8698 8.25521 29.1406 9.70313C31.4219 11.151 32.5625 13.1927 32.5625 15.8281C32.5625 18.2656 31.7396 20.1354 30.0938 21.4375C28.4583 22.7396 24.8542 23.9948 19.2813 25.2031L16.1563 25.9375C10.5938 27.1042 6.57292 28.901 4.09375 31.3281C1.625 33.7552 0.390625 37.0833 0.390625 41.3125C0.390625 46.4583 2.21354 50.4271 5.85938 53.2188C9.50521 56.0208 14.6823 57.4219 21.3906 57.4219C24.7031 57.4219 27.8229 57.1771 30.75 56.6875C33.6875 56.2083 36.3906 55.4792 38.8594 54.5Z"/>
      <path id="DejaVuSans-75" transform="matrix(0 -0.125 -0.125 0 9.75391 73.8511)" fill="#000000" d="M0 23L0 56.1094L8.98438 56.1094L8.98438 23.3438C8.98438 18.1667 9.98958 14.2813 12 11.6875C14.0208 9.10417 17.0521 7.8125 21.0938 7.8125C25.9375 7.8125 29.7656 9.35938 32.5781 12.4531C35.401 15.5469 36.8125 19.7656 36.8125 25.1094L36.8125 56.1094L45.7969 56.1094L45.7969 1.42188L36.8125 1.42188L36.8125 9.82813C34.6354 6.50521 32.1042 4.03646 29.2188 2.42188C26.3438 0.807292 23 0 19.1875 0C12.9063 0 8.13542 1.95313 4.875 5.85938C1.625 9.76563 0 15.4792 0 23ZM22.6094 57.4219"/>
      <path id="DejaVuSans-6d" transform="matrix(0 -0.125 -0.125 0 9.57617 65.8564)" fill="#000000" d="M42.9219 44.1875C45.1719 48.2292 47.8594 51.2083 50.9844 53.125C54.1094 55.0417 57.7865 56 62.0156 56C67.7135 56 72.1094 54.0052 75.2031 50.0156C78.2969 46.0365 79.8438 40.3698 79.8438 33.0156L79.8438 0L70.8125 0L70.8125 32.7188C70.8125 37.9583 69.8802 41.8437 68.0156 44.375C66.1615 46.9167 63.3333 48.1875 59.5313 48.1875C54.875 48.1875 51.1927 46.6406 48.4844 43.5469C45.7865 40.4635 44.4375 36.25 44.4375 30.9062L44.4375 0L35.4063 0L35.4063 32.7188C35.4063 37.9896 34.4792 41.8854 32.625 44.4063C30.7708 46.9271 27.9063 48.1875 24.0313 48.1875C19.4375 48.1875 15.7865 46.6354 13.0781 43.5312C10.3802 40.4271 9.03125 36.2188 9.03125 30.9062L9.03125 0L0 0L0 54.6875L9.03125 54.6875L9.03125 46.1875C11.0833 49.5417 13.5417 52.0156 16.4063 53.6094C19.2708 55.2031 22.6719 56 26.6094 56C30.5885 56 33.9688 54.9896 36.75 52.9688C39.5313 50.9583 41.5885 48.0313 42.9219 44.1875Z"/>
      <path id="DejaVuSans-6f1" transform="matrix(0 -0.125 -0.125 0 9.75391 54.1252)" fill="#000000" d="M25.0938 49.8125C20.2813 49.8125 16.474 47.9323 13.6719 44.1719C10.8698 40.4115 9.46875 35.2604 9.46875 28.7188C9.46875 22.1771 10.8594 17.026 13.6406 13.2656C16.4323 9.50521 20.25 7.625 25.0938 7.625C29.8854 7.625 33.6771 9.51042 36.4688 13.2813C39.2708 17.0625 40.6719 22.2083 40.6719 28.7188C40.6719 35.1979 39.2708 40.3333 36.4688 44.125C33.6771 47.9167 29.8854 49.8125 25.0938 49.8125ZM25.0938 57.4219C32.9063 57.4219 39.0417 54.8802 43.5 49.7969C47.9688 44.724 50.2031 37.6979 50.2031 28.7188C50.2031 19.7708 47.9688 12.7448 43.5 7.64063C39.0417 2.54688 32.9063 0 25.0938 0C17.25 0 11.1042 2.54688 6.65625 7.64063C2.21875 12.7448 0 19.7708 0 28.7188C0 37.6979 2.21875 44.724 6.65625 49.7969C11.1042 54.8802 17.25 57.4219 25.0938 57.4219Z"/>
      <path id="DejaVuSans-20" transform="matrix(0 -0.125 -0.125 0 9.57617 47.167)" fill="#000000" d=""/>
      <path id="DejaVuSans-28" transform="matrix(0 -0.125 -0.125 0 11.2246 42.1194)" fill="#000000" d="M22.4063 89.0625C18.0521 81.5833 14.8125 74.1771 12.6875 66.8438C10.5729 59.5208 9.51563 52.099 9.51563 44.5781C9.51563 37.0677 10.5833 29.625 12.7188 22.25C14.8542 14.875 18.0833 7.45833 22.4063 0L14.5938 0C9.71875 7.65625 6.06771 15.1771 3.64063 22.5625C1.21354 29.9479 0 37.2865 0 44.5781C0 51.8385 1.20313 59.1458 3.60938 66.5C6.02604 73.8646 9.6875 81.3854 14.5938 89.0625Z"/>
      <path id="DejaVuSans-62" transform="matrix(0 -0.125 -0.125 0 9.75391 37.1821)" fill="#000000" d="M39.6094 28.7187C39.6094 35.3229 38.25 40.5052 35.5313 44.2656C32.8125 48.026 29.0781 49.9063 24.3281 49.9063C19.5677 49.9063 15.8281 48.026 13.1094 44.2656C10.3906 40.5052 9.03125 35.3229 9.03125 28.7187C9.03125 22.1146 10.3906 16.9323 13.1094 13.1719C15.8281 9.41146 19.5677 7.53125 24.3281 7.53125C29.0781 7.53125 32.8125 9.41146 35.5313 13.1719C38.25 16.9323 39.6094 22.1146 39.6094 28.7187ZM9.03125 47.8125C10.9271 51.0625 13.3125 53.474 16.1875 55.0469C19.0729 56.6302 22.5156 57.4219 26.5156 57.4219C33.1615 57.4219 38.5573 54.7865 42.7031 49.5156C46.8594 44.2448 48.9375 37.3125 48.9375 28.7187C48.9375 20.125 46.8594 13.1875 42.7031 7.90625C38.5573 2.63542 33.1615 0 26.5156 0C22.5156 0 19.0729 0.791667 16.1875 2.375C13.3125 3.95833 10.9271 6.375 9.03125 9.625L9.03125 1.42188L0 1.42188L0 77.4063L9.03125 77.4063Z"/>
      <path id="DejaVuSans-79" transform="matrix(0 -0.125 -0.125 0 12.1758 30.0093)" fill="#000000" d="M29.1875 15.7188C26.6563 9.20833 24.1823 4.96354 21.7656 2.98438C19.3594 0.994792 16.1406 0 12.1094 0L4.92188 0L4.92188 7.51563L10.2031 7.51563C12.6719 7.51563 14.5885 8.10417 15.9531 9.28125C17.3281 10.4479 18.8438 13.2135 20.5 17.5781L22.1094 21.6719L0 75.4844L9.51563 75.4844L26.6094 32.7188L43.7031 75.4844L53.2188 75.4844Z"/>
      <path id="DejaVuSans-74" transform="matrix(0 -0.125 -0.125 0 9.57617 22.6489)" fill="#000000" d="M15.625 70.2188L15.625 54.6875L34.125 54.6875L34.125 47.7031L15.625 47.7031L15.625 18.0156C15.625 13.5573 16.2344 10.6927 17.4531 9.42188C18.6719 8.15104 21.1563 7.51562 24.9063 7.51562L34.125 7.51562L34.125 0L24.9063 0C17.9688 0 13.1823 1.29167 10.5469 3.875C7.91146 6.46875 6.59375 11.1823 6.59375 18.0156L6.59375 47.7031L0 47.7031L0 54.6875L6.59375 54.6875L6.59375 70.2188Z"/>
      <path id="DejaVuSans-65" transform="matrix(0 -0.125 -0.125 0 9.75391 17.3943)" fill="#000000" d="M50.6875 31.0156L50.6875 26.625L9.375 26.625C9.77083 20.4375 11.6354 15.724 14.9688 12.4844C18.3021 9.24479 22.9479 7.625 28.9062 7.625C32.3542 7.625 35.6979 8.04688 38.9375 8.89063C42.1771 9.73438 45.3958 11.0052 48.5938 12.7031L48.5938 4.20313C45.3646 2.83854 42.0573 1.79688 38.6719 1.07813C35.2865 0.359375 31.8542 0 28.375 0C19.6458 0 12.7344 2.53646 7.64063 7.60938C2.54687 12.6927 0 19.5677 0 28.2344C0 37.1823 2.41667 44.2813 7.25 49.5313C12.0833 54.7917 18.6042 57.4219 26.8125 57.4219C34.1667 57.4219 39.9844 55.0521 44.2656 50.3125C48.5469 45.5833 50.6875 39.151 50.6875 31.0156ZM41.7031 33.6563C41.6406 38.5625 40.2656 42.4792 37.5781 45.4063C34.8906 48.3438 31.3333 49.8125 26.9063 49.8125C21.8958 49.8125 17.8854 48.3958 14.875 45.5625C11.8646 42.7292 10.1302 38.7396 9.67187 33.5938Z"/>
      <path id="DejaVuSans-731" transform="matrix(0 -0.125 -0.125 0 9.75391 9.71558)" fill="#000000" d="M38.8594 54.5L38.8594 46C36.3281 47.3021 33.6927 48.276 30.9531 48.9219C28.224 49.5781 25.3906 49.9063 22.4531 49.9063C17.9948 49.9063 14.651 49.224 12.4219 47.8594C10.1927 46.4948 9.07813 44.4427 9.07813 41.7031C9.07813 39.6198 9.875 37.9844 11.4688 36.7969C13.0625 35.6094 16.2708 34.4792 21.0938 33.4063L24.1719 32.7188C30.5469 31.3542 35.0781 29.4271 37.7656 26.9375C40.4531 24.4479 41.7969 20.974 41.7969 16.5156C41.7969 11.4323 39.7865 7.40625 35.7656 4.4375C31.7448 1.47917 26.2188 0 19.1875 0C16.2604 0 13.2083 0.286458 10.0313 0.859375C6.85417 1.43229 3.51042 2.28646 0 3.42188L0 12.7031C3.32292 10.974 6.59375 9.67708 9.8125 8.8125C13.0313 7.95833 16.224 7.53125 19.3906 7.53125C23.6198 7.53125 26.8698 8.25521 29.1406 9.70313C31.4219 11.151 32.5625 13.1927 32.5625 15.8281C32.5625 18.2656 31.7396 20.1354 30.0938 21.4375C28.4583 22.7396 24.8542 23.9948 19.2813 25.2031L16.1563 25.9375C10.5938 27.1042 6.57292 28.901 4.09375 31.3281C1.625 33.7552 0.390625 37.0833 0.390625 41.3125C0.390625 46.4583 2.21354 50.4271 5.85938 53.2188C9.50521 56.0208 14.6823 57.4219 21.3906 57.4219C24.7031 57.4219 27.8229 57.1771 30.75 56.6875C33.6875 56.2083 36.3906 55.4792 38.8594 54.5Z"/>
      <path id="DejaVuSans-29" transform="matrix(0 -0.125 -0.125 0 11.2246 2.87891)" fill="#000000" d="M0 89.0625L7.8125 89.0625C12.6875 81.3854 16.3385 73.8646 18.7656 66.5C21.1927 59.1458 22.4063 51.8385 22.4063 44.5781C22.4063 37.2865 21.1927 29.9479 18.7656 22.5625C16.3385 15.1771 12.6875 7.65625 7.8125 0L0 0C4.32292 7.45833 7.55208 14.875 9.6875 22.25C11.8229 29.625 12.8906 37.0677 12.8906 44.5781C12.8906 52.099 11.8229 59.5208 9.6875 66.8438C7.55208 74.1771 4.32292 81.5833 0 89.0625Z"/>
     </g>
    </g>
   </g>
   <g id="line2d_14" transform="translate(75.3915, 32.0737)" fill="none">
    <path id="shape2" transform="matrix(1.25 0 0 1.25 2.63774 2.63774)" fill="none" stroke="#1f77b4" stroke-width="1.50000000000" stroke-linecap="square" stroke-linejoin="round" d="M0 241.92L10.4727 234.116L20.9455 226.312L31.4182 218.508L41.8909 210.705L52.3636 202.901L62.8364 195.097L73.3091 187.293L83.7818 179.489L94.2545 171.685L104.727 163.881L115.2 156.077L125.673 148.274L136.145 140.47L146.618 132.666L157.091 124.862L167.564 117.058L178.036 109.254L188.509 101.45L198.982 93.6465L209.455 85.8426L219.927 78.0387L230.4 70.2348L240.873 62.431L251.345 54.6271L261.818 46.8232L272.291 39.0194L282.764 31.2155L293.236 23.4116L303.709 15.6077L314.182 7.80387L324.655 0"/>
   </g>
   <g id="patch_3" transform="translate(54.1133, 15.9664)" fill="none">
    <path id="shape3" transform="matrix(1.25 0 0 1.25 3.625 3.625)" fill="none" stroke="#000000" stroke-width="0.80000000000" stroke-linecap="square" stroke-linejoin="miter" stroke-miterlimit="2.00000000000" d="M0 266.112L0 0"/>
   </g>
   <g id="patch_4" transform="translate(500.513, 15.9664)" fill="none">
    <path id="shape4" transform="matrix(1.25 0 0 1.25 3.625 3.625)" fill="none" stroke="#000000" stroke-width="0.80000000000" stroke-linecap="square" stroke-linejoin="miter" stroke-miterlimit="2.00000000000" d="M0 266.112L0 0"/>
   </g>
   <g id="patch_5" transform="translate(54.1133, 348.606)" fill="none">
    <path id="shape5" transform="matrix(1.25 0 0 1.25 3.625 3.625)" fill="none" stroke="#000000" stroke-width="0.80000000000" stroke-linecap="square" stroke-linejoin="miter" stroke-miterlimit="2.00000000000" d="M0 0L357.12 0"/>
   </g>
   <g id="patch_6" transform="translate(54.1133, 15.9664)" fill="none">
    <path id="shape6" transform="matrix(1.25 0 0 1.25 3.625 3.625)" fill="none" stroke="#000000" stroke-width="0.80000000000" stroke-linecap="square" stroke-linejoin="miter" stroke-miterlimit="2.00000000000" d="M0 0L357.12 0"/>
   </g>
   <g id="text_16" transform="translate(198.831, -1.77636e-14)" fill="none">
    <g id="group28" transform="" fill="none">
     <path id="DejaVuSans-431" transform="matrix(0.15 0 0 -0.15 0.09375 12.3047)" fill="#000000" d="M58.7969 68.7031L58.7969 58.3125C55.474 61.4063 51.9323 63.7135 48.1719 65.2344C44.4115 66.7656 40.4167 67.5313 36.1875 67.5313C27.8542 67.5313 21.474 64.9844 17.0469 59.8906C12.6198 54.7969 10.4063 47.4323 10.4063 37.7969C10.4063 28.1927 12.6198 20.8438 17.0469 15.75C21.474 10.6563 27.8542 8.10938 36.1875 8.10938C40.4167 8.10938 44.4115 8.875 48.1719 10.4063C51.9323 11.9375 55.474 14.25 58.7969 17.3438L58.7969 7.03125C55.349 4.6875 51.6927 2.92708 47.8281 1.75C43.974 0.583333 39.901 0 35.6094 0C24.5677 0 15.8698 3.375 9.51563 10.125C3.17188 16.8854 0 26.1094 0 37.7969C0 49.5156 3.17188 58.75 9.51563 65.5C15.8698 72.2604 24.5677 75.6406 35.6094 75.6406C39.9635 75.6406 44.0677 75.0625 47.9219 73.9063C51.7865 72.75 55.4115 71.0156 58.7969 68.7031Z"/>
     <path id="DejaVuSans-6f2" transform="matrix(0.15 0 0 -0.15 10.5533 12.3047)" fill="#000000" d="M25.0938 49.8125C20.2813 49.8125 16.474 47.9323 13.6719 44.1719C10.8698 40.4115 9.46875 35.2604 9.46875 28.7188C9.46875 22.1771 10.8594 17.026 13.6406 13.2656C16.4323 9.50521 20.25 7.625 25.0938 7.625C29.8854 7.625 33.6771 9.51042 36.4688 13.2813C39.2708 17.0625 40.6719 22.2083 40.6719 28.7188C40.6719 35.1979 39.2708 40.3333 36.4688 44.125C33.6771 47.9167 29.8854 49.8125 25.0938 49.8125ZM25.0938 57.4219C32.9063 57.4219 39.0417 54.8802 43.5 49.7969C47.9688 44.724 50.2031 37.6979 50.2031 28.7188C50.2031 19.7708 47.9688 12.7448 43.5 7.64063C39.0417 2.54688 32.9063 0 25.0938 0C17.25 0 11.1042 2.54688 6.65625 7.64063C2.21875 12.7448 0 19.7708 0 28.7188C0 37.6979 2.21875 44.724 6.65625 49.7969C11.1042 54.8802 17.25 57.4219 25.0938 57.4219Z"/>
     <path id="DejaVuSans-6e1" transform="matrix(0.15 0 0 -0.15 20.2649 12.0914)" fill="#000000" d="M45.8125 33.0156L45.8125 0L36.8281 0L36.8281 32.7188C36.8281 37.8958 35.8177 41.7656 33.7969 44.3281C31.776 46.901 28.75 48.1875 24.7188 48.1875C19.8646 48.1875 16.0365 46.6406 13.2344 43.5469C10.4323 40.4635 9.03125 36.25 9.03125 30.9062L9.03125 0L0 0L0 54.6875L9.03125 54.6875L9.03125 46.1875C11.1875 49.4792 13.7188 51.9375 16.625 53.5625C19.5417 55.1875 22.9063 56 26.7187 56C33 56 37.75 54.0573 40.9688 50.1719C44.1979 46.2865 45.8125 40.5677 45.8125 33.0156Z"/>
     <path id="DejaVuSans-732" transform="matrix(0.15 0 0 -0.15 29.2233 12.3047)" fill="#000000" d="M38.8594 54.5L38.8594 46C36.3281 47.3021 33.6927 48.276 30.9531 48.9219C28.224 49.5781 25.3906 49.9063 22.4531 49.9063C17.9948 49.9063 14.651 49.224 12.4219 47.8594C10.1927 46.4948 9.07813 44.4427 9.07813 41.7031C9.07813 39.6198 9.875 37.9844 11.4688 36.7969C13.0625 35.6094 16.2708 34.4792 21.0938 33.4063L24.1719 32.7188C30.5469 31.3542 35.0781 29.4271 37.7656 26.9375C40.4531 24.4479 41.7969 20.974 41.7969 16.5156C41.7969 11.4323 39.7865 7.40625 35.7656 4.4375C31.7448 1.47917 26.2188 0 19.1875 0C16.2604 0 13.2083 0.286458 10.0313 0.859375C6.85417 1.43229 3.51042 2.28646 0 3.42188L0 12.7031C3.32292 10.974 6.59375 9.67708 9.8125 8.8125C13.0313 7.95833 16.224 7.53125 19.3906 7.53125C23.6198 7.53125 26.8698 8.25521 29.1406 9.70313C31.4219 11.151 32.5625 13.1927 32.5625 15.8281C32.5625 18.2656 31.7396 20.1354 30.0938 21.4375C28.4583 22.7396 24.8542 23.9948 19.2813 25.2031L16.1563 25.9375C10.5938 27.1042 6.57292 28.901 4.09375 31.3281C1.625 33.7552 0.390625 37.0833 0.390625 41.3125C0.390625 46.4583 2.21354 50.4271 5.85938 53.2188C9.50521 56.0208 14.6823 57.4219 21.3906 57.4219C24.7031 57.4219 27.8229 57.1771 30.75 56.6875C33.6875 56.2083 36.3906 55.4792 38.8594 54.5Z"/>
     <path id="DejaVuSans-751" transform="matrix(0.15 0 0 -0.15 37.5 12.3047)" fill="#000000" d="M0 23L0 56.1094L8.98438 56.1094L8.98438 23.3438C8.98438 18.1667 9.98958 14.2813 12 11.6875C14.0208 9.10417 17.0521 7.8125 21.0938 7.8125C25.9375 7.8125 29.7656 9.35938 32.5781 12.4531C35.401 15.5469 36.8125 19.7656 36.8125 25.1094L36.8125 56.1094L45.7969 56.1094L45.7969 1.42188L36.8125 1.42188L36.8125 9.82813C34.6354 6.50521 32.1042 4.03646 29.2188 2.42188C26.3438 0.807292 23 0 19.1875 0C12.9063 0 8.13542 1.95313 4.875 5.85938C1.625 9.76563 0 15.4792 0 23ZM22.6094 57.4219"/>
     <path id="DejaVuSans-6d1" transform="matrix(0.15 0 0 -0.15 47.0936 12.0914)" fill="#000000" d="M42.9219 44.1875C45.1719 48.2292 47.8594 51.2083 50.9844 53.125C54.1094 55.0417 57.7865 56 62.0156 56C67.7135 56 72.1094 54.0052 75.2031 50.0156C78.2969 46.0365 79.8438 40.3698 79.8438 33.0156L79.8438 0L70.8125 0L70.8125 32.7188C70.8125 37.9583 69.8802 41.8437 68.0156 44.375C66.1615 46.9167 63.3333 48.1875 59.5313 48.1875C54.875 48.1875 51.1927 46.6406 48.4844 43.5469C45.7865 40.4635 44.4375 36.25 44.4375 30.9062L44.4375 0L35.4063 0L35.4063 32.7188C35.4063 37.9896 34.4792 41.8854 32.625 44.4063C30.7708 46.9271 27.9063 48.1875 24.0313 48.1875C19.4375 48.1875 15.7865 46.6354 13.0781 43.5312C10.3802 40.4271 9.03125 36.2188 9.03125 30.9062L9.03125 0L0 0L0 54.6875L9.03125 54.6875L9.03125 46.1875C11.0833 49.5417 13.5417 52.0156 16.4063 53.6094C19.2708 55.2031 22.6719 56 26.6094 56C30.5885 56 33.9688 54.9896 36.75 52.9688C39.5313 50.9583 41.5885 48.0313 42.9219 44.1875Z"/>
     <path id="DejaVuSans-6f3" transform="matrix(0.15 0 0 -0.15 61.171 12.3047)" fill="#000000" d="M25.0938 49.8125C20.2813 49.8125 16.474 47.9323 13.6719 44.1719C10.8698 40.4115 9.46875 35.2604 9.46875 28.7188C9.46875 22.1771 10.8594 17.026 13.6406 13.2656C16.4323 9.50521 20.25 7.625 25.0938 7.625C29.8854 7.625 33.6771 9.51042 36.4688 13.2813C39.2708 17.0625 40.6719 22.2083 40.6719 28.7188C40.6719 35.1979 39.2708 40.3333 36.4688 44.125C33.6771 47.9167 29.8854 49.8125 25.0938 49.8125ZM25.0938 57.4219C32.9063 57.4219 39.0417 54.8802 43.5 49.7969C47.9688 44.724 50.2031 37.6979 50.2031 28.7188C50.2031 19.7708 47.9688 12.7448 43.5 7.64063C39.0417 2.54688 32.9063 0 25.0938 0C17.25 0 11.1042 2.54688 6.65625 7.64063C2.21875 12.7448 0 19.7708 0 28.7188C0 37.6979 2.21875 44.724 6.65625 49.7969C11.1042 54.8802 17.25 57.4219 25.0938 57.4219Z"/>
     <path id="DejaVuSans-201" transform="matrix(0.15 0 0 -0.15 69.5209 12.0914)" fill="#000000" d=""/>
     <path id="DejaVuSans-64" transform="matrix(0.15 0 0 -0.15 75.1163 12.3047)" fill="#000000" d="M39.8906 47.8125L39.8906 77.4063L48.875 77.4063L48.875 1.42188L39.8906 1.42188L39.8906 9.625C38.0052 6.375 35.6198 3.95833 32.7344 2.375C29.8594 0.791667 26.401 0 22.3594 0C15.7552 0 10.375 2.63542 6.21875 7.90625C2.07292 13.1875 0 20.125 0 28.7187C0 37.3125 2.07292 44.2448 6.21875 49.5156C10.375 54.7865 15.7552 57.4219 22.3594 57.4219C26.401 57.4219 29.8594 56.6302 32.7344 55.0469C35.6198 53.474 38.0052 51.0625 39.8906 47.8125ZM9.28125 28.7187C9.28125 22.1146 10.6406 16.9323 13.3594 13.1719C16.0781 9.41146 19.8125 7.53125 24.5625 7.53125C29.3125 7.53125 33.0521 9.41146 35.7813 13.1719C38.5208 16.9323 39.8906 22.1146 39.8906 28.7187C39.8906 35.3229 38.5208 40.5052 35.7813 44.2656C33.0521 48.026 29.3125 49.9063 24.5625 49.9063C19.8125 49.9063 16.0781 48.026 13.3594 44.2656C10.6406 40.5052 9.28125 35.3229 9.28125 28.7187Z"/>
     <path id="DejaVuSans-651" transform="matrix(0.15 0 0 -0.15 84.6378 12.3047)" fill="#000000" d="M50.6875 31.0156L50.6875 26.625L9.375 26.625C9.77083 20.4375 11.6354 15.724 14.9688 12.4844C18.3021 9.24479 22.9479 7.625 28.9062 7.625C32.3542 7.625 35.6979 8.04688 38.9375 8.89063C42.1771 9.73438 45.3958 11.0052 48.5938 12.7031L48.5938 4.20313C45.3646 2.83854 42.0573 1.79688 38.6719 1.07813C35.2865 0.359375 31.8542 0 28.375 0C19.6458 0 12.7344 2.53646 7.64063 7.60938C2.54687 12.6927 0 19.5677 0 28.2344C0 37.1823 2.41667 44.2813 7.25 49.5313C12.0833 54.7917 18.6042 57.4219 26.8125 57.4219C34.1667 57.4219 39.9844 55.0521 44.2656 50.3125C48.5469 45.5833 50.6875 39.151 50.6875 31.0156ZM41.7031 33.6563C41.6406 38.5625 40.2656 42.4792 37.5781 45.4063C34.8906 48.3438 31.3333 49.8125 26.9063 49.8125C21.8958 49.8125 17.8854 48.3958 14.875 45.5625C11.8646 42.7292 10.1302 38.7396 9.67187 33.5938Z"/>
     <path id="DejaVuSans-202" transform="matrix(0.15 0 0 -0.15 93.039 12.0914)" fill="#000000" d=""/>
     <path id="DejaVuSans-6d2" transform="matrix(0.15 0 0 -0.15 99.1687 12.0914)" fill="#000000" d="M42.9219 44.1875C45.1719 48.2292 47.8594 51.2083 50.9844 53.125C54.1094 55.0417 57.7865 56 62.0156 56C67.7135 56 72.1094 54.0052 75.2031 50.0156C78.2969 46.0365 79.8438 40.3698 79.8438 33.0156L79.8438 0L70.8125 0L70.8125 32.7188C70.8125 37.9583 69.8802 41.8437 68.0156 44.375C66.1615 46.9167 63.3333 48.1875 59.5313 48.1875C54.875 48.1875 51.1927 46.6406 48.4844 43.5469C45.7865 40.4635 44.4375 36.25 44.4375 30.9062L44.4375 0L35.4063 0L35.4063 32.7188C35.4063 37.9896 34.4792 41.8854 32.625 44.4063C30.7708 46.9271 27.9063 48.1875 24.0313 48.1875C19.4375 48.1875 15.7865 46.6354 13.0781 43.5312C10.3802 40.4271 9.03125 36.2188 9.03125 30.9062L9.03125 0L0 0L0 54.6875L9.03125 54.6875L9.03125 46.1875C11.0833 49.5417 13.5417 52.0156 16.4063 53.6094C19.2708 55.2031 22.6719 56 26.6094 56C30.5885 56 33.9688 54.9896 36.75 52.9688C39.5313 50.9583 41.5885 48.0313 42.9219 44.1875Z"/>
     <path id="DejaVuSans-652" transform="matrix(0.15 0 0 -0.15 113.246 12.3047)" fill="#000000" d="M50.6875 31.0156L50.6875 26.625L9.375 26.625C9.77083 20.4375 11.6354 15.724 14.9688 12.4844C18.3021 9.24479 22.9479 7.625 28.9062 7.625C32.3542 7.625 35.6979 8.04688 38.9375 8.89063C42.1771 9.73438 45.3958 11.0052 48.5938 12.7031L48.5938 4.20313C45.3646 2.83854 42.0573 1.79688 38.6719 1.07813C35.2865 0.359375 31.8542 0 28.375 0C19.6458 0 12.7344 2.53646 7.64063 7.60938C2.54687 12.6927 0 19.5677 0 28.2344C0 37.1823 2.41667 44.2813 7.25 49.5313C12.0833 54.7917 18.6042 57.4219 26.8125 57.4219C34.1667 57.4219 39.9844 55.0521 44.2656 50.3125C48.5469 45.5833 50.6875 39.151 50.6875 31.0156ZM41.7031 33.6563C41.6406 38.5625 40.2656 42.4792 37.5781 45.4063C34.8906 48.3438 31.3333 49.8125 26.9063 49.8125C21.8958 49.8125 17.8854 48.3958 14.875 45.5625C11.8646 42.7292 10.1302 38.7396 9.67187 33.5938Z"/>
     <path id="DejaVuSans-6d3" transform="matrix(0.15 0 0 -0.15 123.009 12.0914)" fill="#000000" d="M42.9219 44.1875C45.1719 48.2292 47.8594 51.2083 50.9844 53.125C54.1094 55.0417 57.7865 56 62.0156 56C67.7135 56 72.1094 54.0052 75.2031 50.0156C78.2969 46.0365 79.8438 40.3698 79.8438 33.0156L79.8438 0L70.8125 0L70.8125 32.7188C70.8125 37.9583 69.8802 41.8437 68.0156 44.375C66.1615 46.9167 63.3333 48.1875 59.5313 48.1875C54.875 48.1875 51.1927 46.6406 48.4844 43.5469C45.7865 40.4635 44.4375 36.25 44.4375 30.9062L44.4375 0L35.4063 0L35.4063 32.7188C35.4063 37.9896 34.4792 41.8854 32.625 44.4063C30.7708 46.9271 27.9063 48.1875 24.0313 48.1875C19.4375 48.1875 15.7865 46.6354 13.0781 43.5312C10.3802 40.4271 9.03125 36.2188 9.03125 30.9062L9.03125 0L0 0L0 54.6875L9.03125 54.6875L9.03125 46.1875C11.0833 49.5417 13.5417 52.0156 16.4063 53.6094C19.2708 55.2031 22.6719 56 26.6094 56C30.5885 56 33.9688 54.9896 36.75 52.9688C39.5313 50.9583 41.5885 48.0313 42.9219 44.1875Z"/>
     <path id="DejaVuSans-f3" transform="matrix(0.15 0 0 -0.15 137.087 12.3047)" fill="#000000" d="M25.0938 49.8125C20.2813 49.8125 16.474 47.9323 13.6719 44.1719C10.8698 40.4115 9.46875 35.2604 9.46875 28.7188C9.46875 22.1771 10.8594 17.026 13.6406 13.2656C16.4323 9.50521 20.25 7.625 25.0938 7.625C29.8854 7.625 33.6771 9.51042 36.4688 13.2813C39.2708 17.0625 40.6719 22.2083 40.6719 28.7188C40.6719 35.1979 39.2708 40.3333 36.4688 44.125C33.6771 47.9167 29.8854 49.8125 25.0938 49.8125ZM25.0938 57.4219C32.9063 57.4219 39.0417 54.8802 43.5 49.7969C47.9688 44.724 50.2031 37.6979 50.2031 28.7188C50.2031 19.7708 47.9688 12.7448 43.5 7.64063C39.0417 2.54688 32.9063 0 25.0938 0C17.25 0 11.1042 2.54688 6.65625 7.64063C2.21875 12.7448 0 19.7708 0 28.7188C0 37.6979 2.21875 44.724 6.65625 49.7969C11.1042 54.8802 17.25 57.4219 25.0938 57.4219ZM31.8906 81.4063L41.6094 81.4063L25.7031 63.0469L18.2188 63.0469Z"/>
     <path id="DejaVuSans-72" transform="matrix(0.15 0 0 -0.15 146.798 12.0914)" fill="#000000" d="M32.0313 46.2969C31.0208 46.8802 29.9219 47.3073 28.7344 47.5781C27.5469 47.8594 26.2396 48 24.8125 48C19.7292 48 15.8281 46.349 13.1094 43.0469C10.3906 39.7448 9.03125 35 9.03125 28.8125L9.03125 0L0 0L0 54.6875L9.03125 54.6875L9.03125 46.1875C10.9271 49.5104 13.3854 51.974 16.4063 53.5781C19.4375 55.1927 23.1198 56 27.4531 56C28.0677 56 28.75 55.9583 29.5 55.875C30.25 55.8021 31.0781 55.6823 31.9844 55.5156Z"/>
     <path id="DejaVuSans-69" transform="matrix(0.15 0 0 -0.15 153.017 12.0914)" fill="#000000" d="M0 54.6875L8.98438 54.6875L8.98438 0L0 0ZM0 75.9844L8.98438 75.9844L8.98438 64.5938L0 64.5938Z"/>
     <path id="DejaVuSans-61" transform="matrix(0.15 0 0 -0.15 156.671 12.3047)" fill="#000000" d="M28.2812 28.9063C21.0208 28.9063 15.9896 28.0781 13.1875 26.4219C10.3854 24.7656 8.98437 21.9323 8.98437 17.9219C8.98437 14.7344 10.0365 12.2031 12.1406 10.3281C14.2448 8.46354 17.099 7.53125 20.7031 7.53125C25.6927 7.53125 29.6927 9.29688 32.7031 12.8281C35.7135 16.3594 37.2188 21.0521 37.2188 26.9063L37.2188 28.9063ZM46.2031 32.625L46.2031 1.42188L37.2188 1.42188L37.2188 9.71875C35.1667 6.40625 32.6094 3.95833 29.5469 2.375C26.4844 0.791667 22.7396 0 18.3125 0C12.7187 0 8.26563 1.57292 4.95312 4.71875C1.65104 7.86458 0 12.0729 0 17.3438C0 23.4896 2.05729 28.125 6.17188 31.25C10.2969 34.375 16.4427 35.9375 24.6094 35.9375L37.2188 35.9375L37.2188 36.8281C37.2188 40.9635 35.8594 44.1615 33.1406 46.4219C30.4219 48.6823 26.6042 49.8125 21.6875 49.8125C18.5625 49.8125 15.5156 49.4375 12.5469 48.6875C9.58854 47.9375 6.74479 46.8125 4.01563 45.3125L4.01563 53.625C7.29687 54.8958 10.4844 55.8438 13.5781 56.4688C16.6719 57.1042 19.6823 57.4219 22.6094 57.4219C30.526 57.4219 36.4375 55.3698 40.3438 51.2656C44.25 47.1719 46.2031 40.9583 46.2031 32.625Z"/>
    </g>
   </g>
  </g>
 </g>
</svg>
